#tb 0: 1/25
0,          0,          0,        1,    38016, 0x85d20fc6
0,          1,          1,        1,    38016, 0xc0432c21
0,          2,          2,        1,    38016, 0x1450168f
0,          3,          3,        1,    38016, 0xeddb1833
0,          4,          4,        1,    38016, 0x631216d4
0,          5,          5,        1,    38016, 0xfcd1138b
0,          6,          6,        1,    38016, 0x181f17d5
0,          7,          7,        1,    38016, 0x3dc91855
0,          8,          8,        1,    38016, 0x92b71924
0,          9,          9,        1,    38016, 0xfcb6228d
0,         10,         10,        1,    38016, 0x11d04b4a
0,         11,         11,        1,    38016, 0x743a6a06
0,         12,         12,        1,    38016, 0xac511cc3
0,         13,         13,        1,    38016, 0x66bc1e2d
0,         14,         14,        1,    38016, 0x6c761ef3
0,         15,         15,        1,    38016, 0xa08a1ef5
0,         16,         16,        1,    38016, 0x777270da
0,         17,         17,        1,    38016, 0x9a738d9f
0,         18,         18,        1,    38016, 0x31a8afa2
0,         19,         19,        1,    38016, 0x1148cc11
0,         20,         20,        1,    38016, 0xf5fa1f26
0,         21,         21,        1,    38016, 0xc0481fbc
0,         22,         22,        1,    38016, 0x461b2228
0,         23,         23,        1,    38016, 0x27bb209d
0,         24,         24,        1,    38016, 0xbe921f04
0,         25,         25,        1,    38016, 0xabdbd493
0,         26,         26,        1,    38016, 0x4f6ad36e
0,         27,         27,        1,    38016, 0xe2f8d0ca
0,         28,         28,        1,    38016, 0xd82aaea2
0,         29,         29,        1,    38016, 0xb208854b
0,         30,         30,        1,    38016, 0xfe632920
0,         31,         31,        1,    38016, 0x1a8128ce
0,         32,         32,        1,    38016, 0xd9ea2be9
0,         33,         33,        1,    38016, 0x258b2ab0
0,         34,         34,        1,    38016, 0xb5812bef
0,         35,         35,        1,    38016, 0x00c92cdf
0,         36,         36,        1,    38016, 0x4a6b9f6f
0,         37,         37,        1,    38016, 0xb589b0a1
0,         38,         38,        1,    38016, 0xf2d0bbca
0,         39,         39,        1,    38016, 0xe614cce3
0,         40,         40,        1,    38016, 0x6d81d01c
0,         41,         41,        1,    38016, 0x7f32d175
0,         42,         42,        1,    38016, 0x6abc2f40
0,         43,         43,        1,    38016, 0x767d2f6a
0,         44,         44,        1,    38016, 0xd64b30cf
0,         45,         45,        1,    38016, 0xf83d3000
0,         46,         46,        1,    38016, 0x5f3230d5
0,         47,         47,        1,    38016, 0x80b330a0
0,         48,         48,        1,    38016, 0x42c4326e
0,         49,         49,        1,    38016, 0x7cb8d069
0,         50,         50,        1,    38016, 0xb7bb9d2f
0,         51,         51,        1,    38016, 0xf4f47c47
0,         52,         52,        1,    38016, 0xe3455aa0
0,         53,         53,        1,    38016, 0x3b074630
0,         54,         54,        1,    38016, 0x1fd44e63
0,         55,         55,        1,    38016, 0x5ecb6a07
0,         56,         56,        1,    38016, 0xe3a130c9
0,         57,         57,        1,    38016, 0x307f311a
0,         58,         58,        1,    38016, 0x4e2d3202
0,         59,         59,        1,    38016, 0x06ac31c1
0,         60,         60,        1,    38016, 0x767931ab
0,         61,         61,        1,    38016, 0xcb6433aa
0,         62,         62,        1,    38016, 0xc88e3597
0,         63,         63,        1,    38016, 0xfe06371f
0,         64,         64,        1,    38016, 0x9e3c8a14
0,         65,         65,        1,    38016, 0xba819e5b
0,         66,         66,        1,    38016, 0x0017a693
0,         67,         67,        1,    38016, 0x25aca2dd
0,         68,         68,        1,    38016, 0x3bf5980d
0,         69,         69,        1,    38016, 0x2a0ba2ae
0,         70,         70,        1,    38016, 0x99e19853
0,         71,         71,        1,    38016, 0x5e7a9699
0,         72,         72,        1,    38016, 0x11983c1a
0,         73,         73,        1,    38016, 0x5ab53cbf
0,         74,         74,        1,    38016, 0x49803f12
0,         75,         75,        1,    38016, 0xf1633fdc
0,         76,         76,        1,    38016, 0x91de3ff3
0,         77,         77,        1,    38016, 0x418942a1
0,         78,         78,        1,    38016, 0x670c4277
0,         79,         79,        1,    38016, 0xc04e403e
0,         80,         80,        1,    38016, 0xa33e40ad
0,         81,         81,        1,    38016, 0x7f959a9c
0,         82,         82,        1,    38016, 0x096696ae
0,         83,         83,        1,    38016, 0xdb41933c
0,         84,         84,        1,    38016, 0xb26086b4
0,         85,         85,        1,    38016, 0x80c97e07
0,         86,         86,        1,    38016, 0xa7416837
0,         87,         87,        1,    38016, 0xa82f6342
0,         88,         88,        1,    38016, 0x8da16527
0,         89,         89,        1,    38016, 0x1c1965a9
0,         90,         90,        1,    38016, 0x09ad470c
0,         91,         91,        1,    38016, 0x3f694725
0,         92,         92,        1,    38016, 0xa7034699
0,         93,         93,        1,    38016, 0x38104981
0,         94,         94,        1,    38016, 0x216048b7
0,         95,         95,        1,    38016, 0x24e04c22
0,         96,         96,        1,    38016, 0xbb7e4871
0,         97,         97,        1,    38016, 0x8c074b97
0,         98,         98,        1,    38016, 0x92aa4b79
0,         99,         99,        1,    38016, 0x073c4d97
0,        100,        100,        1,    38016, 0xe225f953
0,        101,        101,        1,    38016, 0xcaccf96b
0,        102,        102,        1,    38016, 0xc395cd82
0,        103,        103,        1,    38016, 0x8c61ad55
0,        104,        104,        1,    38016, 0x6fb988f2
0,        105,        105,        1,    38016, 0x99fe7aea
0,        106,        106,        1,    38016, 0xab3c73bf
0,        107,        107,        1,    38016, 0xcdb06bc4
0,        108,        108,        1,    38016, 0x65a1540a
0,        109,        109,        1,    38016, 0xc22f4fb0
0,        110,        110,        1,    38016, 0xe5ca4830
0,        111,        111,        1,    38016, 0x06b346f9
0,        112,        112,        1,    38016, 0x02154629
0,        113,        113,        1,    38016, 0x3d5e4467
0,        114,        114,        1,    38016, 0x6aa4460c
0,        115,        115,        1,    38016, 0x05bc47c4
0,        116,        116,        1,    38016, 0xc46e4666
0,        117,        117,        1,    38016, 0xc28145f5
0,        118,        118,        1,    38016, 0xf57f4811
0,        119,        119,        1,    38016, 0x1bbc49f8
0,        120,        120,        1,    38016, 0x34e14c2c
0,        121,        121,        1,    38016, 0x7e7d7740
0,        122,        122,        1,    38016, 0x97d798f3
0,        123,        123,        1,    38016, 0x7d71ca3b
0,        124,        124,        1,    38016, 0xc6bc0776
0,        125,        125,        1,    38016, 0xda052645
0,        126,        126,        1,    38016, 0xf0b32de9
0,        127,        127,        1,    38016, 0x996f23cf
0,        128,        128,        1,    38016, 0x22ea1a43
0,        129,        129,        1,    38016, 0xbde61021
0,        130,        130,        1,    38016, 0x8180079d
0,        131,        131,        1,    38016, 0x3ac6f314
0,        132,        132,        1,    38016, 0x93604f67
0,        133,        133,        1,    38016, 0xb9a55213
0,        134,        134,        1,    38016, 0x89c8523c
0,        135,        135,        1,    38016, 0x670a511b
0,        136,        136,        1,    38016, 0x62395128
0,        137,        137,        1,    38016, 0x01605431
0,        138,        138,        1,    38016, 0x677253cd
0,        139,        139,        1,    38016, 0xc57f56b1
0,        140,        140,        1,    38016, 0x767f5679
0,        141,        141,        1,    38016, 0x4abc5717
0,        142,        142,        1,    38016, 0x838657dc
0,        143,        143,        1,    38016, 0x63bf56ad
0,        144,        144,        1,    38016, 0x7019c8ad
0,        145,        145,        1,    38016, 0xebbaa7bf
0,        146,        146,        1,    38016, 0xebbc8ddb
0,        147,        147,        1,    38016, 0xea609f00
0,        148,        148,        1,    38016, 0x88e6b1e4
0,        149,        149,        1,    38016, 0x7f9edd6b
0,        150,        150,        1,    38016, 0xeaf354a6
0,        151,        151,        1,    38016, 0xf30274c9
0,        152,        152,        1,    38016, 0x05a756da
0,        153,        153,        1,    38016, 0xacea1ca6
0,        154,        154,        1,    38016, 0x1520d86d
0,        155,        155,        1,    38016, 0xb0f7afa4
0,        156,        156,        1,    38016, 0xe33c5802
0,        157,        157,        1,    38016, 0xce2a58cd
0,        158,        158,        1,    38016, 0xd3ad5a30
0,        159,        159,        1,    38016, 0x29aa5955
0,        160,        160,        1,    38016, 0x59015aef
0,        161,        161,        1,    38016, 0x247c5a72
0,        162,        162,        1,    38016, 0x79a85b27
0,        163,        163,        1,    38016, 0x6cf858fe
0,        164,        164,        1,    38016, 0x78ec5b20
0,        165,        165,        1,    38016, 0x7cb158c5
0,        166,        166,        1,    38016, 0xc52c581f
0,        167,        167,        1,    38016, 0x125c58bd
0,        168,        168,        1,    38016, 0xf8b257c9
0,        169,        169,        1,    38016, 0x20329756
0,        170,        170,        1,    38016, 0x60a07c12
0,        171,        171,        1,    38016, 0xa2c26ad1
0,        172,        172,        1,    38016, 0xcbbc681b
0,        173,        173,        1,    38016, 0x2c0562ad
0,        174,        174,        1,    38016, 0x8a72640d
0,        175,        175,        1,    38016, 0xe6e7756a
0,        176,        176,        1,    38016, 0x64608a48
0,        177,        177,        1,    38016, 0xe9bea9fa
0,        178,        178,        1,    38016, 0x24bac776
0,        179,        179,        1,    38016, 0x6aa9d01b
0,        180,        180,        1,    38016, 0xf41ebb02
0,        181,        181,        1,    38016, 0x28017154
0,        182,        182,        1,    38016, 0x3fc55eb4
0,        183,        183,        1,    38016, 0xe7bc5f22
0,        184,        184,        1,    38016, 0xe6706162
0,        185,        185,        1,    38016, 0xee385fe2
0,        186,        186,        1,    38016, 0x79c0600b
0,        187,        187,        1,    38016, 0x735a603f
0,        188,        188,        1,    38016, 0xe7916199
0,        189,        189,        1,    38016, 0x542d601d
0,        190,        190,        1,    38016, 0xbfaa611a
0,        191,        191,        1,    38016, 0xb7504e05
0,        192,        192,        1,    38016, 0xd1964339
0,        193,        193,        1,    38016, 0x4213278a
0,        194,        194,        1,    38016, 0xb503229f
0,        195,        195,        1,    38016, 0x166a091c
0,        196,        196,        1,    38016, 0x37176bbc
0,        197,        197,        1,    38016, 0x95977cc3
0,        198,        198,        1,    38016, 0x5bab93f4
0,        199,        199,        1,    38016, 0x71d5d142
0,        200,        200,        1,    38016, 0x97d1cfa6
0,        201,        201,        1,    38016, 0xac82ff20
0,        202,        202,        1,    38016, 0x489a1fa1
0,        203,        203,        1,    38016, 0x32944930
0,        204,        204,        1,    38016, 0x72a2647c
0,        205,        205,        1,    38016, 0x95b685d6
0,        206,        206,        1,    38016, 0xb7e19840
0,        207,        207,        1,    38016, 0x85569129
0,        208,        208,        1,    38016, 0x6bc6a197
0,        209,        209,        1,    38016, 0x55ccace8
0,        210,        210,        1,    38016, 0x9bbdc9c2
0,        211,        211,        1,    38016, 0xbce4ade3
0,        212,        212,        1,    38016, 0x39c7c48a
0,        213,        213,        1,    38016, 0x498ac4aa
0,        214,        214,        1,    38016, 0xeda3b715
0,        215,        215,        1,    38016, 0x700db089
0,        216,        216,        1,    38016, 0xf6b6bf36
0,        217,        217,        1,    38016, 0x6abebf1c
0,        218,        218,        1,    38016, 0x8855c17c
0,        219,        219,        1,    38016, 0xfba09dd5
0,        220,        220,        1,    38016, 0xd5868240
0,        221,        221,        1,    38016, 0x438074a2
0,        222,        222,        1,    38016, 0xc8b2c501
0,        223,        223,        1,    38016, 0xd48ec1ef
0,        224,        224,        1,    38016, 0xa715c4be
0,        225,        225,        1,    38016, 0xd758c281
0,        226,        226,        1,    38016, 0x07c25900
0,        227,        227,        1,    38016, 0xee7950e6
0,        228,        228,        1,    38016, 0x3e154be9
0,        229,        229,        1,    38016, 0xa8f33bb7
0,        230,        230,        1,    38016, 0xf493bc3c
0,        231,        231,        1,    38016, 0x9d69bccb
0,        232,        232,        1,    38016, 0xbf9fbafa
0,        233,        233,        1,    38016, 0x2e62b9a8
0,        234,        234,        1,    38016, 0x2f41bae1
0,        235,        235,        1,    38016, 0xd820355d
0,        236,        236,        1,    38016, 0xf3623118
0,        237,        237,        1,    38016, 0x659b4459
0,        238,        238,        1,    38016, 0xdcd74654
0,        239,        239,        1,    38016, 0x73f33f73
0,        240,        240,        1,    38016, 0xbf96b5ec
0,        241,        241,        1,    38016, 0xe9ebb550
0,        242,        242,        1,    38016, 0xfe12b5dd
0,        243,        243,        1,    38016, 0x9908b6d5
0,        244,        244,        1,    38016, 0xe805b8cf
0,        245,        245,        1,    38016, 0x1a8eb68a
0,        246,        246,        1,    38016, 0x6aed288d
0,        247,        247,        1,    38016, 0x162f167f
0,        248,        248,        1,    38016, 0x49110ae5
0,        249,        249,        1,    38016, 0xab060059
0,        250,        250,        1,    38016, 0x0fb8a0a8
0,        251,        251,        1,    38016, 0xf3b0b384
0,        252,        252,        1,    38016, 0x6f32bb1b
0,        253,        253,        1,    38016, 0x7278bb3a
0,        254,        254,        1,    38016, 0xdeb1bdcf
0,        255,        255,        1,    38016, 0x90efbc5c
0,        256,        256,        1,    38016, 0xd2f6bb28
0,        257,        257,        1,    38016, 0xba4dba32
0,        258,        258,        1,    38016, 0x0751ba19
0,        259,        259,        1,    38016, 0xc3f7b9db
0,        260,        260,        1,    38016, 0xca22c433
0,        261,        261,        1,    38016, 0x82a7e336
0,        262,        262,        1,    38016, 0x45e90a19
0,        263,        263,        1,    38016, 0x82cd2c11
0,        264,        264,        1,    38016, 0x4e2e56cc
0,        265,        265,        1,    38016, 0x0ad281c6
0,        266,        266,        1,    38016, 0x8685b8b7
0,        267,        267,        1,    38016, 0xe502b7b3
0,        268,        268,        1,    38016, 0x4898b696
0,        269,        269,        1,    38016, 0xe0fcb729
0,        270,        270,        1,    38016, 0xe5e0b822
0,        271,        271,        1,    38016, 0x9030b82c
0,        272,        272,        1,    38016, 0x7dc6b93c
0,        273,        273,        1,    38016, 0x727cb981
0,        274,        274,        1,    38016, 0xb08999c9
0,        275,        275,        1,    38016, 0x3e54b6d7
0,        276,        276,        1,    38016, 0x5d15c1e2
0,        277,        277,        1,    38016, 0x5840d8d7
0,        278,        278,        1,    38016, 0x1109d730
0,        279,        279,        1,    38016, 0xb898c47e
0,        280,        280,        1,    38016, 0xbde196c6
0,        281,        281,        1,    38016, 0x75999430
0,        282,        282,        1,    38016, 0xa17db11e
0,        283,        283,        1,    38016, 0xb428b220
0,        284,        284,        1,    38016, 0x1537b1ed
0,        285,        285,        1,    38016, 0x102ab213
0,        286,        286,        1,    38016, 0xee38af9e
0,        287,        287,        1,    38016, 0xc9c5b34e
0,        288,        288,        1,    38016, 0x8618af6d
0,        289,        289,        1,    38016, 0x97f3af7a
0,        290,        290,        1,    38016, 0x222eb095
0,        291,        291,        1,    38016, 0xb1508324
0,        292,        292,        1,    38016, 0x2149ad09
0,        293,        293,        1,    38016, 0x67261443
0,        294,        294,        1,    38016, 0x90918df5
0,        295,        295,        1,    38016, 0x5d43e726
0,        296,        296,        1,    38016, 0x1d77dfa3
0,        297,        297,        1,    38016, 0xa60b941c
0,        298,        298,        1,    38016, 0x48813a99
0,        299,        299,        1,    38016, 0x2324b77a
0,        300,        300,        1,    38016, 0xdfd99d0d
0,        301,        301,        1,    38016, 0x44129be1
0,        302,        302,        1,    38016, 0x1137a099
0,        303,        303,        1,    38016, 0xbd24a0a1
0,        304,        304,        1,    38016, 0x3883a310
0,        305,        305,        1,    38016, 0x0680a358
0,        306,        306,        1,    38016, 0xf333a501
0,        307,        307,        1,    38016, 0x3945a6ac
0,        308,        308,        1,    38016, 0x79eea741
0,        309,        309,        1,    38016, 0x8c7aa6b0
0,        310,        310,        1,    38016, 0x0342642f
0,        311,        311,        1,    38016, 0x83632b63
0,        312,        312,        1,    38016, 0x1503ff51
0,        313,        313,        1,    38016, 0xa4bcea0f
0,        314,        314,        1,    38016, 0x37dcd11b
0,        315,        315,        1,    38016, 0x9aa7287a
0,        316,        316,        1,    38016, 0x34deae76
0,        317,        317,        1,    38016, 0x51710057
0,        318,        318,        1,    38016, 0x9ee6fc0a
0,        319,        319,        1,    38016, 0xa419ea79
0,        320,        320,        1,    38016, 0x49388f7e
0,        321,        321,        1,    38016, 0x08498b2d
0,        322,        322,        1,    38016, 0x104f8c4d
0,        323,        323,        1,    38016, 0xdb998d74
0,        324,        324,        1,    38016, 0xd54e8c95
0,        325,        325,        1,    38016, 0x54a48e5e
0,        326,        326,        1,    38016, 0xbe6f8cd0
0,        327,        327,        1,    38016, 0x2a7f8ec2
0,        328,        328,        1,    38016, 0x23848f19
0,        329,        329,        1,    38016, 0x9b168ee3
0,        330,        330,        1,    38016, 0xc2628fb6
0,        331,        331,        1,    38016, 0xe2bdfd4e
0,        332,        332,        1,    38016, 0xfdae1546
0,        333,        333,        1,    38016, 0xb1fe20db
0,        334,        334,        1,    38016, 0x5ebf23f0
0,        335,        335,        1,    38016, 0xecbc1fcb
0,        336,        336,        1,    38016, 0xe72e141c
0,        337,        337,        1,    38016, 0xbad7f54d
0,        338,        338,        1,    38016, 0x95ead3c6
0,        339,        339,        1,    38016, 0xf5c6b948
0,        340,        340,        1,    38016, 0x2f8b80ab
0,        341,        341,        1,    38016, 0x0aed47a7
0,        342,        342,        1,    38016, 0xdcb278e3
0,        343,        343,        1,    38016, 0x2a677958
0,        344,        344,        1,    38016, 0x45427ae8
0,        345,        345,        1,    38016, 0xebce78de
0,        346,        346,        1,    38016, 0xaf007bb1
0,        347,        347,        1,    38016, 0xb4677cdb
0,        348,        348,        1,    38016, 0xbf6d8024
0,        349,        349,        1,    38016, 0xb67180de
0,        350,        350,        1,    38016, 0xb1581358
0,        351,        351,        1,    38016, 0x258f140d
0,        352,        352,        1,    38016, 0x753d17e6
0,        353,        353,        1,    38016, 0xf33816b4
0,        354,        354,        1,    38016, 0x0d011c76
0,        355,        355,        1,    38016, 0x48cfd85d
0,        356,        356,        1,    38016, 0x13ce822d
0,        357,        357,        1,    38016, 0x221a4468
0,        358,        358,        1,    38016, 0x11364be7
0,        359,        359,        1,    38016, 0xafc047b0
0,        360,        360,        1,    38016, 0xeafd4217
0,        361,        361,        1,    38016, 0x930b8a41
0,        362,        362,        1,    38016, 0x2dda0bd2
0,        363,        363,        1,    38016, 0x461cc3f2
0,        364,        364,        1,    38016, 0xa99e962a
0,        365,        365,        1,    38016, 0xc1d954ba
0,        366,        366,        1,    38016, 0x0ce91a87
0,        367,        367,        1,    38016, 0x10701e2d
0,        368,        368,        1,    38016, 0x98c22205
0,        369,        369,        1,    38016, 0xb76622f1
0,        370,        370,        1,    38016, 0x6d1a22d4
0,        371,        371,        1,    38016, 0x00ee23c5
0,        372,        372,        1,    38016, 0xc38125e6
0,        373,        373,        1,    38016, 0x8de52597
0,        374,        374,        1,    38016, 0xec282293
0,        375,        375,        1,    38016, 0xb50f2238
0,        376,        376,        1,    38016, 0xbdcf1f9f
0,        377,        377,        1,    38016, 0x5c6c1780
0,        378,        378,        1,    38016, 0x41941237
0,        379,        379,        1,    38016, 0x95ee1e69
0,        380,        380,        1,    38016, 0x84b65009
0,        381,        381,        1,    38016, 0x27bbf0ab
0,        382,        382,        1,    38016, 0xdd86f4fb
0,        383,        383,        1,    38016, 0x97733086
0,        384,        384,        1,    38016, 0x3241472f
0,        385,        385,        1,    38016, 0x5d050c50
0,        386,        386,        1,    38016, 0x8378aa9b
0,        387,        387,        1,    38016, 0x94f174cd
0,        388,        388,        1,    38016, 0x5825df16
0,        389,        389,        1,    38016, 0x5f362875
0,        390,        390,        1,    38016, 0x30704cd6
0,        391,        391,        1,    38016, 0xc74e3614
0,        392,        392,        1,    38016, 0xe033eb04
0,        393,        393,        1,    38016, 0x665be967
0,        394,        394,        1,    38016, 0x95d5ed67
0,        395,        395,        1,    38016, 0x37dfefc1
0,        396,        396,        1,    38016, 0x1908ee8e
0,        397,        397,        1,    38016, 0xf0cfee38
0,        398,        398,        1,    38016, 0x871df078
0,        399,        399,        1,    38016, 0xb2f2f0f9
0,        400,        400,        1,    38016, 0xf955621f
0,        401,        401,        1,    38016, 0xbd2365a5
0,        402,        402,        1,    38016, 0xe70d6bb0
0,        403,        403,        1,    38016, 0x857e6d00
0,        404,        404,        1,    38016, 0x000d6ee5
0,        405,        405,        1,    38016, 0x9a2f7244
0,        406,        406,        1,    38016, 0xe8c2f83c
0,        407,        407,        1,    38016, 0x23eb0377
0,        408,        408,        1,    38016, 0xe0802a7f
0,        409,        409,        1,    38016, 0x5dbc4d69
0,        410,        410,        1,    38016, 0xa3031f36
0,        411,        411,        1,    38016, 0x27fbb378
0,        412,        412,        1,    38016, 0xeee9a313
0,        413,        413,        1,    38016, 0x189b1e68
0,        414,        414,        1,    38016, 0x9a90678a
0,        415,        415,        1,    38016, 0x1a65ed20
0,        416,        416,        1,    38016, 0x2f51beb7
0,        417,        417,        1,    38016, 0x671ada9d
0,        418,        418,        1,    38016, 0x30af355a
0,        419,        419,        1,    38016, 0x1804d4f9
0,        420,        420,        1,    38016, 0xee227951
0,        421,        421,        1,    38016, 0x20dc3900
0,        422,        422,        1,    38016, 0x334f82dc
0,        423,        423,        1,    38016, 0xb1728506
0,        424,        424,        1,    38016, 0x2236fc10
0,        425,        425,        1,    38016, 0x80d2964d
0,        426,        426,        1,    38016, 0x5e368712
0,        427,        427,        1,    38016, 0x10408765
0,        428,        428,        1,    38016, 0x4b3084c5
0,        429,        429,        1,    38016, 0x975c473f
0,        430,        430,        1,    38016, 0x6f16efa3
0,        431,        431,        1,    38016, 0xe73aac5e
0,        432,        432,        1,    38016, 0x996b6e24
0,        433,        433,        1,    38016, 0x424f6f55
0,        434,        434,        1,    38016, 0x33786d10
0,        435,        435,        1,    38016, 0x8a0f6870
0,        436,        436,        1,    38016, 0x5e8556d4
0,        437,        437,        1,    38016, 0x863b2366
0,        438,        438,        1,    38016, 0x3fa74842
0,        439,        439,        1,    38016, 0x70208948
0,        440,        440,        1,    38016, 0xcf005140
0,        441,        441,        1,    38016, 0xa7585013
0,        442,        442,        1,    38016, 0x61145096
0,        443,        443,        1,    38016, 0x92b952a5
0,        444,        444,        1,    38016, 0x35575235
0,        445,        445,        1,    38016, 0x3e47ec63
0,        446,        446,        1,    38016, 0xfce57b69
0,        447,        447,        1,    38016, 0xf03815e6
0,        448,        448,        1,    38016, 0xb5b6af64
0,        449,        449,        1,    38016, 0x5e3f1b08
0,        450,        450,        1,    38016, 0xd3f9ee61
0,        451,        451,        1,    38016, 0xb8e2ee66
0,        452,        452,        1,    38016, 0x86f8f4b5
0,        453,        453,        1,    38016, 0x23c8f499
0,        454,        454,        1,    38016, 0x634df498
0,        455,        455,        1,    38016, 0xd2b3f570
0,        456,        456,        1,    38016, 0x053e67d3
0,        457,        457,        1,    38016, 0x8d2cbeb3
0,        458,        458,        1,    38016, 0xba0b1e1c
0,        459,        459,        1,    38016, 0x0f5c7d73
0,        460,        460,        1,    38016, 0x46b2118a
0,        461,        461,        1,    38016, 0x818ebae5
0,        462,        462,        1,    38016, 0x4a7af8a9
0,        463,        463,        1,    38016, 0x0c22f937
0,        464,        464,        1,    38016, 0x967ef9b3
0,        465,        465,        1,    38016, 0x530afd34
0,        466,        466,        1,    38016, 0x2a00fdb6
0,        467,        467,        1,    38016, 0xca14f913
0,        468,        468,        1,    38016, 0x82b6f7bc
0,        469,        469,        1,    38016, 0xd32879ec
0,        470,        470,        1,    38016, 0x242b6920
0,        471,        471,        1,    38016, 0x44fd66e4
0,        472,        472,        1,    38016, 0x69d3479c
0,        473,        473,        1,    38016, 0x41a63899
0,        474,        474,        1,    38016, 0xfb370720
0,        475,        475,        1,    38016, 0x5cf0f42d
0,        476,        476,        1,    38016, 0x74e8ca33
0,        477,        477,        1,    38016, 0x1f09cb30
0,        478,        478,        1,    38016, 0xc5e8c1d8
0,        479,        479,        1,    38016, 0x3a82bd74
0,        480,        480,        1,    38016, 0xada0bd71
0,        481,        481,        1,    38016, 0xe695bcc9
0,        482,        482,        1,    38016, 0xc255bb45
0,        483,        483,        1,    38016, 0x6deebbcd
0,        484,        484,        1,    38016, 0x6bf5cef2
0,        485,        485,        1,    38016, 0x8eaed078
0,        486,        486,        1,    38016, 0x3a8addb0
0,        487,        487,        1,    38016, 0x0f2bfe11
0,        488,        488,        1,    38016, 0xe13d2e3b
0,        489,        489,        1,    38016, 0x9bb7606f
0,        490,        490,        1,    38016, 0x9fcc8899
0,        491,        491,        1,    38016, 0xfa22a313
0,        492,        492,        1,    38016, 0xc599b318
0,        493,        493,        1,    38016, 0x33ecb361
0,        494,        494,        1,    38016, 0x2ba8b2df
0,        495,        495,        1,    38016, 0x0debb343
0,        496,        496,        1,    38016, 0x8bbcb7cd
0,        497,        497,        1,    38016, 0x093fbb20
0,        498,        498,        1,    38016, 0x4340c0d2
0,        499,        499,        1,    38016, 0xd765bcb8
0,        500,        500,        1,    38016, 0xe9ea3103
0,        501,        501,        1,    38016, 0x24d7a1ae
0,        502,        502,        1,    38016, 0x9b9ac80f
0,        503,        503,        1,    38016, 0x81b7da0c
0,        504,        504,        1,    38016, 0xb7c5f017
0,        505,        505,        1,    38016, 0xa0e9f9c1
0,        506,        506,        1,    38016, 0x932111a9
0,        507,        507,        1,    38016, 0x15fc17ba
0,        508,        508,        1,    38016, 0x3c7710bd
0,        509,        509,        1,    38016, 0xae1b0ba8
0,        510,        510,        1,    38016, 0x7dc24093
0,        511,        511,        1,    38016, 0x8b9042ad
0,        512,        512,        1,    38016, 0x257f4c1c
0,        513,        513,        1,    38016, 0xaa0442d8
0,        514,        514,        1,    38016, 0xbedd462c
0,        515,        515,        1,    38016, 0xa9bd4905
0,        516,        516,        1,    38016, 0x69d74f50
0,        517,        517,        1,    38016, 0x18143c0d
0,        518,        518,        1,    38016, 0xd2eb5820
0,        519,        519,        1,    38016, 0x94fb5e93
0,        520,        520,        1,    38016, 0x3072f80d
0,        521,        521,        1,    38016, 0xd838f186
0,        522,        522,        1,    38016, 0x3e41e695
0,        523,        523,        1,    38016, 0x66eef2cd
0,        524,        524,        1,    38016, 0x3854ec56
0,        525,        525,        1,    38016, 0x05d3f9c2
0,        526,        526,        1,    38016, 0x53820cc3
0,        527,        527,        1,    38016, 0x09d413ea
0,        528,        528,        1,    38016, 0x82f217f2
0,        529,        529,        1,    38016, 0x07b21d50
0,        530,        530,        1,    38016, 0xd72155c2
0,        531,        531,        1,    38016, 0x20b04c74
0,        532,        532,        1,    38016, 0x5b8962f6
0,        533,        533,        1,    38016, 0xfb8b72c9
0,        534,        534,        1,    38016, 0x6d0f56a7
0,        535,        535,        1,    38016, 0x97876300
0,        536,        536,        1,    38016, 0xfd7f655f
0,        537,        537,        1,    38016, 0x3e405ff6
0,        538,        538,        1,    38016, 0x5ad27a20
0,        539,        539,        1,    38016, 0x46125305
0,        540,        540,        1,    38016, 0x91017b86
0,        541,        541,        1,    38016, 0x5c150c66
0,        542,        542,        1,    38016, 0xc3430969
0,        543,        543,        1,    38016, 0x5f400689
0,        544,        544,        1,    38016, 0x21ddf969
0,        545,        545,        1,    38016, 0x5feff594
0,        546,        546,        1,    38016, 0xb304f3c1
0,        547,        547,        1,    38016, 0xa9c3f70e
0,        548,        548,        1,    38016, 0x6014fa8e
0,        549,        549,        1,    38016, 0x7198f22e
0,        550,        550,        1,    38016, 0xe338e495
0,        551,        551,        1,    38016, 0x9a69ea32
0,        552,        552,        1,    38016, 0xc0cc5d05
0,        553,        553,        1,    38016, 0xefa16044
0,        554,        554,        1,    38016, 0x3e3c6120
0,        555,        555,        1,    38016, 0x06ef63e1
0,        556,        556,        1,    38016, 0x25d5631f
0,        557,        557,        1,    38016, 0xbc8963ee
0,        558,        558,        1,    38016, 0xc2336218
0,        559,        559,        1,    38016, 0xb23965fd
0,        560,        560,        1,    38016, 0x84c9651f
0,        561,        561,        1,    38016, 0x41f6647a
0,        562,        562,        1,    38016, 0xddbe6572
0,        563,        563,        1,    38016, 0x113f65f2
0,        564,        564,        1,    38016, 0x89beec24
0,        565,        565,        1,    38016, 0x6490f37b
0,        566,        566,        1,    38016, 0x15ecf84d
0,        567,        567,        1,    38016, 0xa439f491
0,        568,        568,        1,    38016, 0xda8bf5c4
0,        569,        569,        1,    38016, 0x6bc2f96a
0,        570,        570,        1,    38016, 0x243d0bac
0,        571,        571,        1,    38016, 0xb7c611a2
0,        572,        572,        1,    38016, 0x99243328
0,        573,        573,        1,    38016, 0xa9534571
0,        574,        574,        1,    38016, 0xa5a657bd
0,        575,        575,        1,    38016, 0xd8d06892
0,        576,        576,        1,    38016, 0xb4eb6c8d
0,        577,        577,        1,    38016, 0xa3d36ca8
0,        578,        578,        1,    38016, 0x153a6e9e
0,        579,        579,        1,    38016, 0xf2607081
0,        580,        580,        1,    38016, 0x799d7081
0,        581,        581,        1,    38016, 0x377570cd
0,        582,        582,        1,    38016, 0x90496e54
0,        583,        583,        1,    38016, 0x1d4c746c
0,        584,        584,        1,    38016, 0xbe5e72bb
0,        585,        585,        1,    38016, 0x3c6a760d
0,        586,        586,        1,    38016, 0xd4097614
0,        587,        587,        1,    38016, 0xf45a7a28
0,        588,        588,        1,    38016, 0x8fe37bb8
0,        589,        589,        1,    38016, 0x966295dc
0,        590,        590,        1,    38016, 0xb40da3df
0,        591,        591,        1,    38016, 0x9714b2ac
0,        592,        592,        1,    38016, 0xbdb3c61d
0,        593,        593,        1,    38016, 0x12fcd320
0,        594,        594,        1,    38016, 0x1ee8d858
0,        595,        595,        1,    38016, 0x49e5e217
0,        596,        596,        1,    38016, 0x92aef38e
0,        597,        597,        1,    38016, 0xc26c0476
0,        598,        598,        1,    38016, 0x8eed0e04
0,        599,        599,        1,    38016, 0xe4e3118d
0,        600,        600,        1,    38016, 0x282ce796
0,        601,        601,        1,    38016, 0xbec801e1
0,        602,        602,        1,    38016, 0x864afaf2
0,        603,        603,        1,    38016, 0xe0860383
0,        604,        604,        1,    38016, 0x4261001d
0,        605,        605,        1,    38016, 0x976c0005
0,        606,        606,        1,    38016, 0x69c40af3
0,        607,        607,        1,    38016, 0xb3c00e18
0,        608,        608,        1,    38016, 0x28300c2c
0,        609,        609,        1,    38016, 0xf2d9ff9d
0,        610,        610,        1,    38016, 0xcaeaf979
0,        611,        611,        1,    38016, 0x6733f58e
0,        612,        612,        1,    38016, 0x2bb80869
0,        613,        613,        1,    38016, 0x3c370085
0,        614,        614,        1,    38016, 0x11a2fa2a
0,        615,        615,        1,    38016, 0x828ff770
0,        616,        616,        1,    38016, 0x79bcf490
0,        617,        617,        1,    38016, 0x31d5ee87
0,        618,        618,        1,    38016, 0x6336f00d
0,        619,        619,        1,    38016, 0x058af9d1
0,        620,        620,        1,    38016, 0xff29eb2f
0,        621,        621,        1,    38016, 0x3c3be1f4
0,        622,        622,        1,    38016, 0xfbf5ddc2
0,        623,        623,        1,    38016, 0x22a4d324
0,        624,        624,        1,    38016, 0xb2d4d1d4
0,        625,        625,        1,    38016, 0xa159171f
0,        626,        626,        1,    38016, 0x61a80251
0,        627,        627,        1,    38016, 0xe0429283
0,        628,        628,        1,    38016, 0x5c255bd4
0,        629,        629,        1,    38016, 0xdb0f57ac
0,        630,        630,        1,    38016, 0x3c8bcbf0
0,        631,        631,        1,    38016, 0x2be3d2ef
0,        632,        632,        1,    38016, 0xcd2dc8cc
0,        633,        633,        1,    38016, 0x6905c4cf
0,        634,        634,        1,    38016, 0xd9c9c590
0,        635,        635,        1,    38016, 0xa945cb51
0,        636,        636,        1,    38016, 0x5c8458d3
0,        637,        637,        1,    38016, 0xa1624b6e
0,        638,        638,        1,    38016, 0xb167532e
0,        639,        639,        1,    38016, 0x149d6413
0,        640,        640,        1,    38016, 0x85d97340
0,        641,        641,        1,    38016, 0x8f478203
0,        642,        642,        1,    38016, 0x1902cc8e
0,        643,        643,        1,    38016, 0x1521c5e5
0,        644,        644,        1,    38016, 0xf2d6c7d8
0,        645,        645,        1,    38016, 0x7150c510
0,        646,        646,        1,    38016, 0xfc0ec330
0,        647,        647,        1,    38016, 0x91c4c933
0,        648,        648,        1,    38016, 0x5ec6cbc8
0,        649,        649,        1,    38016, 0x23c0955c
0,        650,        650,        1,    38016, 0x76fb7c27
0,        651,        651,        1,    38016, 0x33c07597
0,        652,        652,        1,    38016, 0x797b6acd
0,        653,        653,        1,    38016, 0xc4945313
0,        654,        654,        1,    38016, 0xa50f25da
0,        655,        655,        1,    38016, 0x7bb6096c
0,        656,        656,        1,    38016, 0x8a1acc48
0,        657,        657,        1,    38016, 0x19a1c9b4
0,        658,        658,        1,    38016, 0x4436cd03
0,        659,        659,        1,    38016, 0xfd73d6fe
0,        660,        660,        1,    38016, 0x25d3d4f0
0,        661,        661,        1,    38016, 0x3acfcd98
0,        662,        662,        1,    38016, 0x2ed3d071
0,        663,        663,        1,    38016, 0x246fd4bd
0,        664,        664,        1,    38016, 0x3e410c62
0,        665,        665,        1,    38016, 0x29da1177
0,        666,        666,        1,    38016, 0x039f1e46
0,        667,        667,        1,    38016, 0x178d1e1a
0,        668,        668,        1,    38016, 0x75561d47
0,        669,        669,        1,    38016, 0x7d65193c
0,        670,        670,        1,    38016, 0xd38d19a8
0,        671,        671,        1,    38016, 0x39c92b20
0,        672,        672,        1,    38016, 0x6c8aebc3
0,        673,        673,        1,    38016, 0xd8d4f9be
0,        674,        674,        1,    38016, 0x7e730a4a
0,        675,        675,        1,    38016, 0xbfae1fee
0,        676,        676,        1,    38016, 0x398f3484
0,        677,        677,        1,    38016, 0xd8e84019
0,        678,        678,        1,    38016, 0x2cf64db3
0,        679,        679,        1,    38016, 0x7e074f09
0,        680,        680,        1,    38016, 0xac384b5a
0,        681,        681,        1,    38016, 0xd28b3a83
0,        682,        682,        1,    38016, 0xa5ce5610
0,        683,        683,        1,    38016, 0xde8565f7
0,        684,        684,        1,    38016, 0x01397a1a
0,        685,        685,        1,    38016, 0xdbdf7fb7
0,        686,        686,        1,    38016, 0x8c1f8ba6
0,        687,        687,        1,    38016, 0xab2a943c
0,        688,        688,        1,    38016, 0x4f8b8421
0,        689,        689,        1,    38016, 0x36f57b3a
0,        690,        690,        1,    38016, 0x565c4dd9
0,        691,        691,        1,    38016, 0x53c34715
0,        692,        692,        1,    38016, 0x38fd4aaa
0,        693,        693,        1,    38016, 0x4dca43eb
0,        694,        694,        1,    38016, 0x1afe40f3
0,        695,        695,        1,    38016, 0xc3dc43cc
0,        696,        696,        1,    38016, 0x1d92431d
0,        697,        697,        1,    38016, 0x3f794765
0,        698,        698,        1,    38016, 0x1c5d4a71
0,        699,        699,        1,    38016, 0xb601531e
0,        700,        700,        1,    38016, 0x4d925d7c
0,        701,        701,        1,    38016, 0x1c605f1e
0,        702,        702,        1,    38016, 0x50ff5608
0,        703,        703,        1,    38016, 0x8da14815
0,        704,        704,        1,    38016, 0x53cc3007
0,        705,        705,        1,    38016, 0x5ce82198
0,        706,        706,        1,    38016, 0x074e15bc
0,        707,        707,        1,    38016, 0x59fb13c9
0,        708,        708,        1,    38016, 0xe28e13a6
0,        709,        709,        1,    38016, 0xcb4f3fa8
0,        710,        710,        1,    38016, 0x7fad560c
0,        711,        711,        1,    38016, 0x7dbc614a
0,        712,        712,        1,    38016, 0xe96f6d9c
0,        713,        713,        1,    38016, 0xf3c47a74
0,        714,        714,        1,    38016, 0xd2af8027
0,        715,        715,        1,    38016, 0x504779d1
0,        716,        716,        1,    38016, 0x876e7f5f
0,        717,        717,        1,    38016, 0x959f8c3d
0,        718,        718,        1,    38016, 0x64d690be
0,        719,        719,        1,    38016, 0xdb899760
0,        720,        720,        1,    38016, 0xbd229ba1
0,        721,        721,        1,    38016, 0xdace575b
0,        722,        722,        1,    38016, 0xfda46324
0,        723,        723,        1,    38016, 0x57b75dbd
0,        724,        724,        1,    38016, 0x264a59cf
0,        725,        725,        1,    38016, 0xfde95cc8
0,        726,        726,        1,    38016, 0x5116601b
0,        727,        727,        1,    38016, 0x72e67205
0,        728,        728,        1,    38016, 0xf1057674
0,        729,        729,        1,    38016, 0x7e917eb9
0,        730,        730,        1,    38016, 0x50ed8b28
0,        731,        731,        1,    38016, 0x357a826c
0,        732,        732,        1,    38016, 0xd68fa449
0,        733,        733,        1,    38016, 0x3a839e39
0,        734,        734,        1,    38016, 0x79469a1b
0,        735,        735,        1,    38016, 0xa9ca9590
0,        736,        736,        1,    38016, 0xbf399686
0,        737,        737,        1,    38016, 0x40499eaf
0,        738,        738,        1,    38016, 0x9972a76d
0,        739,        739,        1,    38016, 0xa3d0aff4
0,        740,        740,        1,    38016, 0xdf27b647
0,        741,        741,        1,    38016, 0x4147c66e
0,        742,        742,        1,    38016, 0x1378d1db
0,        743,        743,        1,    38016, 0x1ca3d444
0,        744,        744,        1,    38016, 0x464d9538
0,        745,        745,        1,    38016, 0xaed28de9
0,        746,        746,        1,    38016, 0xc77a9f86
0,        747,        747,        1,    38016, 0x0882aa10
0,        748,        748,        1,    38016, 0x206ac330
0,        749,        749,        1,    38016, 0x63efd763
0,        750,        750,        1,    38016, 0xbfe2e663
0,        751,        751,        1,    38016, 0xfe6ff1ad
0,        752,        752,        1,    38016, 0x60f9f47e
0,        753,        753,        1,    38016, 0xba1cf0c0
0,        754,        754,        1,    38016, 0x1880eb3d
0,        755,        755,        1,    38016, 0xf0fdd350
0,        756,        756,        1,    38016, 0xb678eedb
0,        757,        757,        1,    38016, 0xa17cf5e4
0,        758,        758,        1,    38016, 0x567fff2a
0,        759,        759,        1,    38016, 0x52ab043b
0,        760,        760,        1,    38016, 0x8e8b0bd9
0,        761,        761,        1,    38016, 0x0f131a7e
0,        762,        762,        1,    38016, 0x26aa2303
0,        763,        763,        1,    38016, 0x70c12bab
0,        764,        764,        1,    38016, 0xa8a93858
0,        765,        765,        1,    38016, 0x289f3b94
0,        766,        766,        1,    38016, 0x3d883605
0,        767,        767,        1,    38016, 0xe171329e
0,        768,        768,        1,    38016, 0x75292865
0,        769,        769,        1,    38016, 0x1d2ac8dc
0,        770,        770,        1,    38016, 0xa336aa94
0,        771,        771,        1,    38016, 0xcede9906
0,        772,        772,        1,    38016, 0x1c9a8b52
0,        773,        773,        1,    38016, 0x2a9c8a78
0,        774,        774,        1,    38016, 0x920a8583
0,        775,        775,        1,    38016, 0xb3ee7e2d
0,        776,        776,        1,    38016, 0x96be75fc
0,        777,        777,        1,    38016, 0x2a8a68d2
0,        778,        778,        1,    38016, 0xdf8e6baf
0,        779,        779,        1,    38016, 0xd46570d1
0,        780,        780,        1,    38016, 0x765b71af
0,        781,        781,        1,    38016, 0x25fe71df
0,        782,        782,        1,    38016, 0x9ca124e3
0,        783,        783,        1,    38016, 0x77c51bab
0,        784,        784,        1,    38016, 0x0b380db9
0,        785,        785,        1,    38016, 0xb0be108b
0,        786,        786,        1,    38016, 0x5c4808b8
0,        787,        787,        1,    38016, 0x73331227
0,        788,        788,        1,    38016, 0xce790cf2
0,        789,        789,        1,    38016, 0x46ac0dfc
0,        790,        790,        1,    38016, 0xdc310caf
0,        791,        791,        1,    38016, 0x909c0606
0,        792,        792,        1,    38016, 0x0756fb3e
0,        793,        793,        1,    38016, 0x4eb0fb0d
0,        794,        794,        1,    38016, 0x6276f6e2
0,        795,        795,        1,    38016, 0x92e0f070
0,        796,        796,        1,    38016, 0x6f2d793f
0,        797,        797,        1,    38016, 0x215f704b
0,        798,        798,        1,    38016, 0xf9b7765e
0,        799,        799,        1,    38016, 0xdb6176bf
0,        800,        800,        1,    38016, 0x2b5165eb
0,        801,        801,        1,    38016, 0xf1145c06
0,        802,        802,        1,    38016, 0x343f698d
0,        803,        803,        1,    38016, 0xcb96713f
0,        804,        804,        1,    38016, 0xc50f775a
0,        805,        805,        1,    38016, 0xbb927e81
0,        806,        806,        1,    38016, 0xa2497bd4
0,        807,        807,        1,    38016, 0xe52b80fa
0,        808,        808,        1,    38016, 0x900f7ac7
0,        809,        809,        1,    38016, 0x77e77d0e
0,        810,        810,        1,    38016, 0xdb33f302
0,        811,        811,        1,    38016, 0xf0519288
0,        812,        812,        1,    38016, 0x4552f487
0,        813,        813,        1,    38016, 0xe7b5f34c
0,        814,        814,        1,    38016, 0x0db18be6
0,        815,        815,        1,    38016, 0xb9ba87c2
0,        816,        816,        1,    38016, 0x1dc2f805
0,        817,        817,        1,    38016, 0x4986f535
0,        818,        818,        1,    38016, 0xc099f301
0,        819,        819,        1,    38016, 0x3d8c6787
0,        820,        820,        1,    38016, 0xd3a4796f
0,        821,        821,        1,    38016, 0xfe01635f
0,        822,        822,        1,    38016, 0xba8df082
0,        823,        823,        1,    38016, 0x55f3f017
0,        824,        824,        1,    38016, 0xf2d7f36a
0,        825,        825,        1,    38016, 0x8bd8f7a1
0,        826,        826,        1,    38016, 0xabcd638b
0,        827,        827,        1,    38016, 0x69ae59ea
0,        828,        828,        1,    38016, 0x5bf43408
0,        829,        829,        1,    38016, 0x6466fd67
0,        830,        830,        1,    38016, 0xc90effb4
0,        831,        831,        1,    38016, 0x82110480
0,        832,        832,        1,    38016, 0xb364f74b
0,        833,        833,        1,    38016, 0x7f1efd76
0,        834,        834,        1,    38016, 0x1a20f30f
0,        835,        835,        1,    38016, 0x4b0fe377
0,        836,        836,        1,    38016, 0x57b4c896
0,        837,        837,        1,    38016, 0x92b1ab52
0,        838,        838,        1,    38016, 0x10ceaf82
0,        839,        839,        1,    38016, 0xc4d3b0b8
0,        840,        840,        1,    38016, 0x68b9f314
0,        841,        841,        1,    38016, 0xc627fd70
0,        842,        842,        1,    38016, 0x5fc108dc
0,        843,        843,        1,    38016, 0x0f1f12d7
0,        844,        844,        1,    38016, 0x6edc208e
0,        845,        845,        1,    38016, 0x91f824eb
0,        846,        846,        1,    38016, 0x1464b836
0,        847,        847,        1,    38016, 0x84c7c412
0,        848,        848,        1,    38016, 0x3e8dd049
0,        849,        849,        1,    38016, 0x493dd1a7
0,        850,        850,        1,    38016, 0x25dfbd00
0,        851,        851,        1,    38016, 0x140bbd33
0,        852,        852,        1,    38016, 0x488e2db6
0,        853,        853,        1,    38016, 0x9e4f2c0a
0,        854,        854,        1,    38016, 0xd60928d3
0,        855,        855,        1,    38016, 0x38b61e0b
0,        856,        856,        1,    38016, 0xb6331660
0,        857,        857,        1,    38016, 0x0a3a0e4c
0,        858,        858,        1,    38016, 0x6ad9105b
0,        859,        859,        1,    38016, 0x29a8cd6b
0,        860,        860,        1,    38016, 0x35e1da7d
0,        861,        861,        1,    38016, 0x824de492
0,        862,        862,        1,    38016, 0x1c76d83c
0,        863,        863,        1,    38016, 0xbe25d98d
0,        864,        864,        1,    38016, 0x5efaf222
0,        865,        865,        1,    38016, 0x17370266
0,        866,        866,        1,    38016, 0x417a2375
0,        867,        867,        1,    38016, 0xb7e423d3
0,        868,        868,        1,    38016, 0x224020fe
0,        869,        869,        1,    38016, 0x4bbe1ee9
0,        870,        870,        1,    38016, 0x72aa1f21
0,        871,        871,        1,    38016, 0xc810126d
0,        872,        872,        1,    38016, 0x42730cd4
0,        873,        873,        1,    38016, 0xfd510c5d
0,        874,        874,        1,    38016, 0x7c6f1313
0,        875,        875,        1,    38016, 0xc1b31b89
0,        876,        876,        1,    38016, 0x57772339
0,        877,        877,        1,    38016, 0x20922349
0,        878,        878,        1,    38016, 0xea4f1a45
0,        879,        879,        1,    38016, 0x79e214d2
0,        880,        880,        1,    38016, 0x77521b5d
0,        881,        881,        1,    38016, 0x5929276c
0,        882,        882,        1,    38016, 0x40b3130d
0,        883,        883,        1,    38016, 0x040a157e
0,        884,        884,        1,    38016, 0x0de31983
0,        885,        885,        1,    38016, 0xdb0a1852
0,        886,        886,        1,    38016, 0x73111b91
0,        887,        887,        1,    38016, 0xf7a61765
0,        888,        888,        1,    38016, 0xc5dd2557
0,        889,        889,        1,    38016, 0xabc32e16
0,        890,        890,        1,    38016, 0x5f093823
0,        891,        891,        1,    38016, 0x9f462f1e
0,        892,        892,        1,    38016, 0x29822c19
0,        893,        893,        1,    38016, 0x259a2697
0,        894,        894,        1,    38016, 0x7ad61867
0,        895,        895,        1,    38016, 0x32fe111f
0,        896,        896,        1,    38016, 0xf65c1142
0,        897,        897,        1,    38016, 0xc5b91a6d
0,        898,        898,        1,    38016, 0x4461191e
0,        899,        899,        1,    38016, 0x0458193a
0,        900,        900,        1,    38016, 0x3ed084a9
0,        901,        901,        1,    38016, 0x4dd28047
0,        902,        902,        1,    38016, 0x18dd8523
0,        903,        903,        1,    38016, 0x4ab87d32
0,        904,        904,        1,    38016, 0xecd0824c
0,        905,        905,        1,    38016, 0xae567d36
0,        906,        906,        1,    38016, 0xfa2e82d0
0,        907,        907,        1,    38016, 0xbce08c2e
0,        908,        908,        1,    38016, 0x125094c4
0,        909,        909,        1,    38016, 0x475e9b1d
0,        910,        910,        1,    38016, 0x9b921150
0,        911,        911,        1,    38016, 0x6f7b1124
0,        912,        912,        1,    38016, 0xa1fe0d8b
0,        913,        913,        1,    38016, 0x12930955
0,        914,        914,        1,    38016, 0x3d981105
0,        915,        915,        1,    38016, 0x92d92e3b
0,        916,        916,        1,    38016, 0x29a33ed5
0,        917,        917,        1,    38016, 0x8d0b578e
0,        918,        918,        1,    38016, 0xda5571ba
0,        919,        919,        1,    38016, 0xbc638172
0,        920,        920,        1,    38016, 0x73fd9abb
0,        921,        921,        1,    38016, 0x53df952b
0,        922,        922,        1,    38016, 0xe1758a4c
0,        923,        923,        1,    38016, 0x064f8812
0,        924,        924,        1,    38016, 0xd9b08971
0,        925,        925,        1,    38016, 0xfe6688a9
0,        926,        926,        1,    38016, 0x3b50938b
0,        927,        927,        1,    38016, 0x4e1a9c13
0,        928,        928,        1,    38016, 0x63599bf0
0,        929,        929,        1,    38016, 0x97e0957f
0,        930,        930,        1,    38016, 0x5a6e98d7
0,        931,        931,        1,    38016, 0xa4be8cf2
0,        932,        932,        1,    38016, 0x53bb901e
0,        933,        933,        1,    38016, 0x15f0994e
0,        934,        934,        1,    38016, 0x71499a4b
0,        935,        935,        1,    38016, 0xf41a87a5
0,        936,        936,        1,    38016, 0x3e237999
0,        937,        937,        1,    38016, 0xf77f5dd2
0,        938,        938,        1,    38016, 0x89874799
0,        939,        939,        1,    38016, 0x02d82294
0,        940,        940,        1,    38016, 0xc5920154
0,        941,        941,        1,    38016, 0x6e61f375
0,        942,        942,        1,    38016, 0x41a6940c
0,        943,        943,        1,    38016, 0x130b97f7
0,        944,        944,        1,    38016, 0xdff09b51
0,        945,        945,        1,    38016, 0xb2999bd6
0,        946,        946,        1,    38016, 0x0bb99d20
0,        947,        947,        1,    38016, 0x9f819633
0,        948,        948,        1,    38016, 0x5bda9640
0,        949,        949,        1,    38016, 0xdcf29321
0,        950,        950,        1,    38016, 0xa6838a63
0,        951,        951,        1,    38016, 0x820a825e
0,        952,        952,        1,    38016, 0x69bb7859
0,        953,        953,        1,    38016, 0x4a8c79c2
0,        954,        954,        1,    38016, 0x1e97e67d
0,        955,        955,        1,    38016, 0x1ad4de1b
0,        956,        956,        1,    38016, 0xe8abeb33
0,        957,        957,        1,    38016, 0xf3a51523
0,        958,        958,        1,    38016, 0xb997399c
0,        959,        959,        1,    38016, 0x9fee8105
0,        960,        960,        1,    38016, 0xf2b6ada3
0,        961,        961,        1,    38016, 0xe6f5bbb3
0,        962,        962,        1,    38016, 0x8ed7ca9f
0,        963,        963,        1,    38016, 0x711abc1a
0,        964,        964,        1,    38016, 0x707ab544
0,        965,        965,        1,    38016, 0x03b8af51
0,        966,        966,        1,    38016, 0x50497b2c
0,        967,        967,        1,    38016, 0x72b57a30
0,        968,        968,        1,    38016, 0xfb6d8164
0,        969,        969,        1,    38016, 0x88618e82
0,        970,        970,        1,    38016, 0xb7369e49
0,        971,        971,        1,    38016, 0x2502a3ca
0,        972,        972,        1,    38016, 0x793aa276
0,        973,        973,        1,    38016, 0x883a8ec6
0,        974,        974,        1,    38016, 0x5f7784e5
0,        975,        975,        1,    38016, 0xddfa7e94
0,        976,        976,        1,    38016, 0xdb877fb8
0,        977,        977,        1,    38016, 0x07e07f39
0,        978,        978,        1,    38016, 0x412590fb
0,        979,        979,        1,    38016, 0x1bd1b527
0,        980,        980,        1,    38016, 0xbb6098c3
0,        981,        981,        1,    38016, 0x5f1b8788
0,        982,        982,        1,    38016, 0x42f068e8
0,        983,        983,        1,    38016, 0x316b53bb
0,        984,        984,        1,    38016, 0xbdbb3fa0
0,        985,        985,        1,    38016, 0xa68f506c
0,        986,        986,        1,    38016, 0xca355d03
0,        987,        987,        1,    38016, 0xfafc6b88
0,        988,        988,        1,    38016, 0x0f106535
0,        989,        989,        1,    38016, 0xa4ae4e63
0,        990,        990,        1,    38016, 0xb206400f
0,        991,        991,        1,    38016, 0x3a5946d1
0,        992,        992,        1,    38016, 0xca739868
0,        993,        993,        1,    38016, 0xe6939d41
0,        994,        994,        1,    38016, 0x2ec19a76
0,        995,        995,        1,    38016, 0x614e96a4
0,        996,        996,        1,    38016, 0x2c2b9348
0,        997,        997,        1,    38016, 0xa00c7f1f
0,        998,        998,        1,    38016, 0x95cb6eca
0,        999,        999,        1,    38016, 0x069d6c4c
0,       1000,       1000,        1,    38016, 0xe17e03e3
0,       1001,       1001,        1,    38016, 0xa7491870
0,       1002,       1002,        1,    38016, 0xacc91e48
0,       1003,       1003,        1,    38016, 0x99eb1e2a
0,       1004,       1004,        1,    38016, 0xb2eb1279
0,       1005,       1005,        1,    38016, 0xa5020c77
0,       1006,       1006,        1,    38016, 0xde966613
0,       1007,       1007,        1,    38016, 0xac7f6e1e
0,       1008,       1008,        1,    38016, 0x1c378a7a
0,       1009,       1009,        1,    38016, 0x32e6d8a4
0,       1010,       1010,        1,    38016, 0xecb8d286
0,       1011,       1011,        1,    38016, 0xa497d941
0,       1012,       1012,        1,    38016, 0x8ad7d36e
0,       1013,       1013,        1,    38016, 0xdbd8a91a
0,       1014,       1014,        1,    38016, 0x718f61d7
0,       1015,       1015,        1,    38016, 0x862619cf
0,       1016,       1016,        1,    38016, 0xaa049781
0,       1017,       1017,        1,    38016, 0xd3986887
0,       1018,       1018,        1,    38016, 0x9e9f5782
0,       1019,       1019,        1,    38016, 0x2a9d4f70
0,       1020,       1020,        1,    38016, 0x62b91421
0,       1021,       1021,        1,    38016, 0x32313eaa
0,       1022,       1022,        1,    38016, 0xf9bf1879
0,       1023,       1023,        1,    38016, 0xc33c0811
0,       1024,       1024,        1,    38016, 0xe9c21227
0,       1025,       1025,        1,    38016, 0xf2922db6
0,       1026,       1026,        1,    38016, 0x669d0627
0,       1027,       1027,        1,    38016, 0x64c1048a
0,       1028,       1028,        1,    38016, 0xdd28fa70
0,       1029,       1029,        1,    38016, 0xd88e8b77
0,       1030,       1030,        1,    38016, 0x3716bdb8
0,       1031,       1031,        1,    38016, 0x1834ef57
0,       1032,       1032,        1,    38016, 0xddb800b7
0,       1033,       1033,        1,    38016, 0x140302cc
0,       1034,       1034,        1,    38016, 0x7fa60568
0,       1035,       1035,        1,    38016, 0x7cc6fd4b
0,       1036,       1036,        1,    38016, 0xf14c2568
0,       1037,       1037,        1,    38016, 0x2ee88bbc
0,       1038,       1038,        1,    38016, 0x915cd143
0,       1039,       1039,        1,    38016, 0x13ede5fa
0,       1040,       1040,        1,    38016, 0x6615f63b
0,       1041,       1041,        1,    38016, 0x8814f54f
0,       1042,       1042,        1,    38016, 0xb53ef24a
0,       1043,       1043,        1,    38016, 0xc6a8ee80
0,       1044,       1044,        1,    38016, 0x9473ee09
0,       1045,       1045,        1,    38016, 0x9b77d932
0,       1046,       1046,        1,    38016, 0x142fc69a
0,       1047,       1047,        1,    38016, 0xb238c6a2
0,       1048,       1048,        1,    38016, 0x4364d302
0,       1049,       1049,        1,    38016, 0xde39d174
0,       1050,       1050,        1,    38016, 0x7fca7fa6
0,       1051,       1051,        1,    38016, 0x77678d42
0,       1052,       1052,        1,    38016, 0xaa7e8b68
0,       1053,       1053,        1,    38016, 0xeecb8c89
0,       1054,       1054,        1,    38016, 0x6e5e8980
0,       1055,       1055,        1,    38016, 0x4f4a80de
0,       1056,       1056,        1,    38016, 0xb3b5cee6
0,       1057,       1057,        1,    38016, 0x0c72cf1c
0,       1058,       1058,        1,    38016, 0xd83fd12d
0,       1059,       1059,        1,    38016, 0x8deeda59
0,       1060,       1060,        1,    38016, 0xe7fae46e
0,       1061,       1061,        1,    38016, 0x8233ecd5
0,       1062,       1062,        1,    38016, 0x0c32808c
0,       1063,       1063,        1,    38016, 0xf43f8571
0,       1064,       1064,        1,    38016, 0xae898f01
0,       1065,       1065,        1,    38016, 0x5a4a99e9
0,       1066,       1066,        1,    38016, 0x589f9b80
0,       1067,       1067,        1,    38016, 0x6ca5a33b
0,       1068,       1068,        1,    38016, 0x3811af0a
0,       1069,       1069,        1,    38016, 0x8272eda7
0,       1070,       1070,        1,    38016, 0xa807f046
0,       1071,       1071,        1,    38016, 0x5b4fec80
0,       1072,       1072,        1,    38016, 0xb6e6e7fa
0,       1073,       1073,        1,    38016, 0x250cdb5c
0,       1074,       1074,        1,    38016, 0x3f38e876
0,       1075,       1075,        1,    38016, 0x8110e94a
0,       1076,       1076,        1,    38016, 0x0f19abd7
0,       1077,       1077,        1,    38016, 0x9e1ca9bd
0,       1078,       1078,        1,    38016, 0x1f33abae
0,       1079,       1079,        1,    38016, 0xff18ad65
0,       1080,       1080,        1,    38016, 0x3d02b300
0,       1081,       1081,        1,    38016, 0xb7a9b4b2
0,       1082,       1082,        1,    38016, 0xd8cab454
0,       1083,       1083,        1,    38016, 0xb48ab772
0,       1084,       1084,        1,    38016, 0x7f98fe59
0,       1085,       1085,        1,    38016, 0x786c1795
0,       1086,       1086,        1,    38016, 0x013437ff
0,       1087,       1087,        1,    38016, 0xba28622a
0,       1088,       1088,        1,    38016, 0xf48486e1
0,       1089,       1089,        1,    38016, 0xc13695c4
0,       1090,       1090,        1,    38016, 0x1fc5a4d2
0,       1091,       1091,        1,    38016, 0x016caefd
0,       1092,       1092,        1,    38016, 0x76b8bc54
0,       1093,       1093,        1,    38016, 0xcf63bdbc
0,       1094,       1094,        1,    38016, 0xeb02c0e2
0,       1095,       1095,        1,    38016, 0xb57dc067
0,       1096,       1096,        1,    38016, 0x8ec8c058
0,       1097,       1097,        1,    38016, 0xcb04be49
0,       1098,       1098,        1,    38016, 0xceccbfac
0,       1099,       1099,        1,    38016, 0x3408c0c3
0,       1100,       1100,        1,    38016, 0xee526afa
0,       1101,       1101,        1,    38016, 0xd7529aad
0,       1102,       1102,        1,    38016, 0x98bd9221
0,       1103,       1103,        1,    38016, 0x2fbd7e5a
0,       1104,       1104,        1,    38016, 0x0fb8a8fc
0,       1105,       1105,        1,    38016, 0xfd28af91
0,       1106,       1106,        1,    38016, 0x81db9907
0,       1107,       1107,        1,    38016, 0x1f0a8ae7
0,       1108,       1108,        1,    38016, 0xd91e93e3
0,       1109,       1109,        1,    38016, 0x5fe6b043
0,       1110,       1110,        1,    38016, 0x2a618a48
0,       1111,       1111,        1,    38016, 0xef1c8cc2
0,       1112,       1112,        1,    38016, 0x928595ce
0,       1113,       1113,        1,    38016, 0xf2a59a43
0,       1114,       1114,        1,    38016, 0x61bf92d0
0,       1115,       1115,        1,    38016, 0x584d840f
0,       1116,       1116,        1,    38016, 0x42177cb1
0,       1117,       1117,        1,    38016, 0x08867c3b
0,       1118,       1118,        1,    38016, 0x5a89813b
0,       1119,       1119,        1,    38016, 0xba558022
0,       1120,       1120,        1,    38016, 0x3d58878a
0,       1121,       1121,        1,    38016, 0x8d215911
0,       1122,       1122,        1,    38016, 0xea27370c
0,       1123,       1123,        1,    38016, 0x7e2a1a9c
0,       1124,       1124,        1,    38016, 0xbb86f763
0,       1125,       1125,        1,    38016, 0xf03fd3c7
0,       1126,       1126,        1,    38016, 0x1eaac263
0,       1127,       1127,        1,    38016, 0x8a4bd0e1
0,       1128,       1128,        1,    38016, 0x5adcf66d
0,       1129,       1129,        1,    38016, 0xa0320a89
0,       1130,       1130,        1,    38016, 0x77338f96
0,       1131,       1131,        1,    38016, 0xf3498f6a
0,       1132,       1132,        1,    38016, 0x7e248dcf
0,       1133,       1133,        1,    38016, 0xf7f68dcc
0,       1134,       1134,        1,    38016, 0x5da597c9
0,       1135,       1135,        1,    38016, 0x63db9d00
0,       1136,       1136,        1,    38016, 0xd1f09e52
0,       1137,       1137,        1,    38016, 0xfc7ba2e1
0,       1138,       1138,        1,    38016, 0x8c26ab25
0,       1139,       1139,        1,    38016, 0x6a45add3
0,       1140,       1140,        1,    38016, 0x0dd7b2a2
0,       1141,       1141,        1,    38016, 0x70c00c4f
0,       1142,       1142,        1,    38016, 0x437e255e
0,       1143,       1143,        1,    38016, 0x63dd455b
0,       1144,       1144,        1,    38016, 0x01453a2e
0,       1145,       1145,        1,    38016, 0x08c120af
0,       1146,       1146,        1,    38016, 0xf3111451
0,       1147,       1147,        1,    38016, 0xf3f10603
0,       1148,       1148,        1,    38016, 0xb154fa41
0,       1149,       1149,        1,    38016, 0x4734ee73
0,       1150,       1150,        1,    38016, 0x28ca7926
0,       1151,       1151,        1,    38016, 0xbb628234
0,       1152,       1152,        1,    38016, 0x0ca1b42f
0,       1153,       1153,        1,    38016, 0x8397b202
0,       1154,       1154,        1,    38016, 0x9d92b832
0,       1155,       1155,        1,    38016, 0x8fbeb4b2
0,       1156,       1156,        1,    38016, 0x056aa904
0,       1157,       1157,        1,    38016, 0x4e78a55c
0,       1158,       1158,        1,    38016, 0xe8a8a265
0,       1159,       1159,        1,    38016, 0xb703a17b
0,       1160,       1160,        1,    38016, 0xe79e9d71
0,       1161,       1161,        1,    38016, 0xbd769f5d
0,       1162,       1162,        1,    38016, 0x602ea70f
0,       1163,       1163,        1,    38016, 0x034caf76
0,       1164,       1164,        1,    38016, 0x28dd9702
0,       1165,       1165,        1,    38016, 0xc8879c85
0,       1166,       1166,        1,    38016, 0x15b098f2
0,       1167,       1167,        1,    38016, 0xf34b9ce5
0,       1168,       1168,        1,    38016, 0x6d159fbf
0,       1169,       1169,        1,    38016, 0x22eb9cac
0,       1170,       1170,        1,    38016, 0xae42a220
0,       1171,       1171,        1,    38016, 0x1275a131
0,       1172,       1172,        1,    38016, 0x8188a057
0,       1173,       1173,        1,    38016, 0x65dea0d1
0,       1174,       1174,        1,    38016, 0x5bd19be2
0,       1175,       1175,        1,    38016, 0xfbd99219
0,       1176,       1176,        1,    38016, 0xad19b3a2
0,       1177,       1177,        1,    38016, 0xa897bb92
0,       1178,       1178,        1,    38016, 0x5b1fbf2e
0,       1179,       1179,        1,    38016, 0x02a5cb24
0,       1180,       1180,        1,    38016, 0xd6ead6fe
0,       1181,       1181,        1,    38016, 0x3083de8a
0,       1182,       1182,        1,    38016, 0xbf1decb4
0,       1183,       1183,        1,    38016, 0xd92af986
0,       1184,       1184,        1,    38016, 0x4c520154
0,       1185,       1185,        1,    38016, 0xd45805a1
0,       1186,       1186,        1,    38016, 0x25e2084d
0,       1187,       1187,        1,    38016, 0x4e3d0960
0,       1188,       1188,        1,    38016, 0x5b449ef2
0,       1189,       1189,        1,    38016, 0xda15abcc
0,       1190,       1190,        1,    38016, 0x1b3ba622
0,       1191,       1191,        1,    38016, 0xaf61a32a
0,       1192,       1192,        1,    38016, 0xcfa39e3d
0,       1193,       1193,        1,    38016, 0x8865a56c
0,       1194,       1194,        1,    38016, 0x3bc9af9b
0,       1195,       1195,        1,    38016, 0x0a83c081
0,       1196,       1196,        1,    38016, 0x5ccec976
0,       1197,       1197,        1,    38016, 0x1f1fc906
0,       1198,       1198,        1,    38016, 0x1ef6cc46
0,       1199,       1199,        1,    38016, 0x7776c39e
0,       1200,       1200,        1,    38016, 0x5860a212
0,       1201,       1201,        1,    38016, 0x2d9092a3
0,       1202,       1202,        1,    38016, 0x964d9f81
0,       1203,       1203,        1,    38016, 0xc35c9691
0,       1204,       1204,        1,    38016, 0x5e0dc673
0,       1205,       1205,        1,    38016, 0xada3b7d6
0,       1206,       1206,        1,    38016, 0x4f3a8d03
0,       1207,       1207,        1,    38016, 0xfcb4861a
0,       1208,       1208,        1,    38016, 0xfa908149
0,       1209,       1209,        1,    38016, 0x6994c514
0,       1210,       1210,        1,    38016, 0x37c5aaa9
0,       1211,       1211,        1,    38016, 0x207abcfe
0,       1212,       1212,        1,    38016, 0x778d7a2d
0,       1213,       1213,        1,    38016, 0x60b773ff
0,       1214,       1214,        1,    38016, 0x41cd67d5
0,       1215,       1215,        1,    38016, 0x3c595a99
0,       1216,       1216,        1,    38016, 0xd672b14c
0,       1217,       1217,        1,    38016, 0x7db2c0fd
0,       1218,       1218,        1,    38016, 0x3d21cf34
0,       1219,       1219,        1,    38016, 0xdd1cf044
0,       1220,       1220,        1,    38016, 0xc4594bcb
0,       1221,       1221,        1,    38016, 0x595e4356
0,       1222,       1222,        1,    38016, 0x9cc53c0d
0,       1223,       1223,        1,    38016, 0x78fc325f
0,       1224,       1224,        1,    38016, 0xc632324f
0,       1225,       1225,        1,    38016, 0x18b1f5c1
0,       1226,       1226,        1,    38016, 0x63aff55e
0,       1227,       1227,        1,    38016, 0x8a50fb04
0,       1228,       1228,        1,    38016, 0x7d5e20f6
0,       1229,       1229,        1,    38016, 0xc31114bb
0,       1230,       1230,        1,    38016, 0xf4852e6e
0,       1231,       1231,        1,    38016, 0x9b6927ba
0,       1232,       1232,        1,    38016, 0x024836c2
0,       1233,       1233,        1,    38016, 0x20843b21
0,       1234,       1234,        1,    38016, 0x19134055
0,       1235,       1235,        1,    38016, 0x1cd843f7
0,       1236,       1236,        1,    38016, 0x122705b1
0,       1237,       1237,        1,    38016, 0x1880fc3d
0,       1238,       1238,        1,    38016, 0x78dbfeaf
0,       1239,       1239,        1,    38016, 0x212c273d
0,       1240,       1240,        1,    38016, 0xff2eb7be
0,       1241,       1241,        1,    38016, 0xe0bd752d
0,       1242,       1242,        1,    38016, 0x277b478a
0,       1243,       1243,        1,    38016, 0x59e84ab2
0,       1244,       1244,        1,    38016, 0x338a50e4
0,       1245,       1245,        1,    38016, 0xaf715a99
0,       1246,       1246,        1,    38016, 0xd1e459a8
0,       1247,       1247,        1,    38016, 0x70da4ac9
0,       1248,       1248,        1,    38016, 0xa695540d
0,       1249,       1249,        1,    38016, 0x9385320b
0,       1250,       1250,        1,    38016, 0x9a8703cd
0,       1251,       1251,        1,    38016, 0xbeda239e
0,       1252,       1252,        1,    38016, 0x5bf262c1
0,       1253,       1253,        1,    38016, 0x9b216899
0,       1254,       1254,        1,    38016, 0x52f24135
0,       1255,       1255,        1,    38016, 0x75a23955
0,       1256,       1256,        1,    38016, 0xb92f4ea2
0,       1257,       1257,        1,    38016, 0xdac95333
0,       1258,       1258,        1,    38016, 0x1a2d4ed4
0,       1259,       1259,        1,    38016, 0xfce25650
0,       1260,       1260,        1,    38016, 0x1e264fdd
0,       1261,       1261,        1,    38016, 0xe77349b8
0,       1262,       1262,        1,    38016, 0x7d2046b0
0,       1263,       1263,        1,    38016, 0x65373899
0,       1264,       1264,        1,    38016, 0x3b3569ae
0,       1265,       1265,        1,    38016, 0x346485d0
0,       1266,       1266,        1,    38016, 0x80b93e57
0,       1267,       1267,        1,    38016, 0xeb724ba5
0,       1268,       1268,        1,    38016, 0x533d7459
0,       1269,       1269,        1,    38016, 0x60f957a7
0,       1270,       1270,        1,    38016, 0x900281b2
0,       1271,       1271,        1,    38016, 0xf4489e06
0,       1272,       1272,        1,    38016, 0xe77730c9
0,       1273,       1273,        1,    38016, 0x41b23060
0,       1274,       1274,        1,    38016, 0x4e8c3012
0,       1275,       1275,        1,    38016, 0x651f2cff
0,       1276,       1276,        1,    38016, 0x787b2e99
0,       1277,       1277,        1,    38016, 0x541e2d10
0,       1278,       1278,        1,    38016, 0x27a824a3
0,       1279,       1279,        1,    38016, 0xe1e72121
0,       1280,       1280,        1,    38016, 0xffb52626
0,       1281,       1281,        1,    38016, 0x7677c8c9
0,       1282,       1282,        1,    38016, 0xa501d38f
0,       1283,       1283,        1,    38016, 0xa6d2c5dc
0,       1284,       1284,        1,    38016, 0xba94d1c1
0,       1285,       1285,        1,    38016, 0x137dac4d
0,       1286,       1286,        1,    38016, 0x65c1bd6e
0,       1287,       1287,        1,    38016, 0x7a32cd65
0,       1288,       1288,        1,    38016, 0x518adf61
0,       1289,       1289,        1,    38016, 0x8baaee58
0,       1290,       1290,        1,    38016, 0xe7642712
0,       1291,       1291,        1,    38016, 0xba191b45
0,       1292,       1292,        1,    38016, 0x93dd16b1
0,       1293,       1293,        1,    38016, 0x22831478
0,       1294,       1294,        1,    38016, 0xe48c103a
0,       1295,       1295,        1,    38016, 0x7c2709e7
0,       1296,       1296,        1,    38016, 0xd7d8f454
0,       1297,       1297,        1,    38016, 0xc504f31a
0,       1298,       1298,        1,    38016, 0x2510e4ae
0,       1299,       1299,        1,    38016, 0x0b56d119
0,       1300,       1300,        1,    38016, 0x6c248150
0,       1301,       1301,        1,    38016, 0xbac4be42
0,       1302,       1302,        1,    38016, 0x5787c4a8
0,       1303,       1303,        1,    38016, 0x65b3d0bd
0,       1304,       1304,        1,    38016, 0xdcc4efbd
0,       1305,       1305,        1,    38016, 0xfe92f78b
0,       1306,       1306,        1,    38016, 0xfda60c1c
0,       1307,       1307,        1,    38016, 0x4997238e
0,       1308,       1308,        1,    38016, 0xfaca43ca
0,       1309,       1309,        1,    38016, 0x81fe533c
0,       1310,       1310,        1,    38016, 0x350bcb11
0,       1311,       1311,        1,    38016, 0xacfdcde4
0,       1312,       1312,        1,    38016, 0xb039c663
0,       1313,       1313,        1,    38016, 0x3402c942
0,       1314,       1314,        1,    38016, 0x388bc3d0
0,       1315,       1315,        1,    38016, 0x85dec11a
0,       1316,       1316,        1,    38016, 0xdfc2be86
0,       1317,       1317,        1,    38016, 0x515cc1a9
0,       1318,       1318,        1,    38016, 0xc7ddb990
0,       1319,       1319,        1,    38016, 0x043fb332
0,       1320,       1320,        1,    38016, 0x5b05b3a7
0,       1321,       1321,        1,    38016, 0xacdf9836
0,       1322,       1322,        1,    38016, 0x55079a49
0,       1323,       1323,        1,    38016, 0x5de2d90d
0,       1324,       1324,        1,    38016, 0x7f9deb52
0,       1325,       1325,        1,    38016, 0x83ddc6d9
0,       1326,       1326,        1,    38016, 0x77ecdc93
0,       1327,       1327,        1,    38016, 0x745fe832
0,       1328,       1328,        1,    38016, 0x920bf8e7
0,       1329,       1329,        1,    38016, 0xd9fc1803
0,       1330,       1330,        1,    38016, 0x06c13052
0,       1331,       1331,        1,    38016, 0x4a962b49
0,       1332,       1332,        1,    38016, 0xd4a7b571
0,       1333,       1333,        1,    38016, 0xdb76bd1e
0,       1334,       1334,        1,    38016, 0x11a4be41
0,       1335,       1335,        1,    38016, 0x575eb740
0,       1336,       1336,        1,    38016, 0x7f11bb5c
0,       1337,       1337,        1,    38016, 0x0f97b9b5
0,       1338,       1338,        1,    38016, 0xa421bc1e
0,       1339,       1339,        1,    38016, 0x2510bda8
0,       1340,       1340,        1,    38016, 0x5ec1c3c2
0,       1341,       1341,        1,    38016, 0xab02c212
0,       1342,       1342,        1,    38016, 0x7862c24a
0,       1343,       1343,        1,    38016, 0x3654c47c
0,       1344,       1344,        1,    38016, 0x6e4f3fd5
0,       1345,       1345,        1,    38016, 0x77b54c6f
0,       1346,       1346,        1,    38016, 0x51016691
0,       1347,       1347,        1,    38016, 0x5c2e7a7a
0,       1348,       1348,        1,    38016, 0x29aea461
0,       1349,       1349,        1,    38016, 0x8f4397b1
0,       1350,       1350,        1,    38016, 0x8af41dba
0,       1351,       1351,        1,    38016, 0x4c1154ca
0,       1352,       1352,        1,    38016, 0xe23e6e91
0,       1353,       1353,        1,    38016, 0xd0617571
0,       1354,       1354,        1,    38016, 0x2ab88348
0,       1355,       1355,        1,    38016, 0x8bf1a109
0,       1356,       1356,        1,    38016, 0xfdd4c390
0,       1357,       1357,        1,    38016, 0x17b8c6bf
0,       1358,       1358,        1,    38016, 0xa012bd5d
0,       1359,       1359,        1,    38016, 0x4c16cee2
0,       1360,       1360,        1,    38016, 0x739fcfae
0,       1361,       1361,        1,    38016, 0x3edae498
0,       1362,       1362,        1,    38016, 0x0d38e4ad
0,       1363,       1363,        1,    38016, 0x896cea10
0,       1364,       1364,        1,    38016, 0x13a0f1a9
0,       1365,       1365,        1,    38016, 0xfe70eeb4
0,       1366,       1366,        1,    38016, 0x540bf40e
0,       1367,       1367,        1,    38016, 0xee20f65e
0,       1368,       1368,        1,    38016, 0x8404fdf7
0,       1369,       1369,        1,    38016, 0x1c71b182
0,       1370,       1370,        1,    38016, 0x96e4c5cc
0,       1371,       1371,        1,    38016, 0x6aa1dcf1
0,       1372,       1372,        1,    38016, 0x4549ed9b
0,       1373,       1373,        1,    38016, 0xd50bffba
0,       1374,       1374,        1,    38016, 0x22701379
0,       1375,       1375,        1,    38016, 0x19462a6b
0,       1376,       1376,        1,    38016, 0x4f6b41e0
0,       1377,       1377,        1,    38016, 0x9d344fcc
0,       1378,       1378,        1,    38016, 0x60625fa9
0,       1379,       1379,        1,    38016, 0xeb377eae
0,       1380,       1380,        1,    38016, 0x0d9f945d
0,       1381,       1381,        1,    38016, 0x4d0fb1dc
0,       1382,       1382,        1,    38016, 0x0b580421
0,       1383,       1383,        1,    38016, 0x30f3191a
0,       1384,       1384,        1,    38016, 0xc5f7295c
0,       1385,       1385,        1,    38016, 0xc4ad35e9
0,       1386,       1386,        1,    38016, 0x25964387
0,       1387,       1387,        1,    38016, 0x3a805820
0,       1388,       1388,        1,    38016, 0x67e26985
0,       1389,       1389,        1,    38016, 0x518f7941
0,       1390,       1390,        1,    38016, 0x2a7982e1
0,       1391,       1391,        1,    38016, 0x54aa84f0
0,       1392,       1392,        1,    38016, 0x3d808f45
0,       1393,       1393,        1,    38016, 0x5dae923c
0,       1394,       1394,        1,    38016, 0xa2a99ccf
0,       1395,       1395,        1,    38016, 0xefdd9a77
0,       1396,       1396,        1,    38016, 0x246fcfa5
0,       1397,       1397,        1,    38016, 0xe315cbcd
0,       1398,       1398,        1,    38016, 0x4825df58
0,       1399,       1399,        1,    38016, 0x0e241554
0,       1400,       1400,        1,    38016, 0x968d8433
0,       1401,       1401,        1,    38016, 0x97eec628
0,       1402,       1402,        1,    38016, 0x7c4cb603
0,       1403,       1403,        1,    38016, 0x6d11e7bf
0,       1404,       1404,        1,    38016, 0xae041b61
0,       1405,       1405,        1,    38016, 0x385e040c
0,       1406,       1406,        1,    38016, 0x449e357a
0,       1407,       1407,        1,    38016, 0x997f4aac
0,       1408,       1408,        1,    38016, 0xd68c4f8b
0,       1409,       1409,        1,    38016, 0xb3b962eb
0,       1410,       1410,        1,    38016, 0x4685adc2
0,       1411,       1411,        1,    38016, 0xed0d7473
0,       1412,       1412,        1,    38016, 0xd069c0bb
0,       1413,       1413,        1,    38016, 0x76abcd8e
0,       1414,       1414,        1,    38016, 0xd6c096da
0,       1415,       1415,        1,    38016, 0x76c2bab5
0,       1416,       1416,        1,    38016, 0x1461dfb3
0,       1417,       1417,        1,    38016, 0xf979f59f
0,       1418,       1418,        1,    38016, 0x0554f985
0,       1419,       1419,        1,    38016, 0x11c6d2a3
0,       1420,       1420,        1,    38016, 0xe6e3faee
0,       1421,       1421,        1,    38016, 0x6ceafbcc
0,       1422,       1422,        1,    38016, 0x429b02e1
0,       1423,       1423,        1,    38016, 0x97bd03f1
0,       1424,       1424,        1,    38016, 0x78330c48
0,       1425,       1425,        1,    38016, 0xb2720325
0,       1426,       1426,        1,    38016, 0x26d412ab
0,       1427,       1427,        1,    38016, 0xb6fb1b5c
0,       1428,       1428,        1,    38016, 0xde8d300a
0,       1429,       1429,        1,    38016, 0x7d28450e
0,       1430,       1430,        1,    38016, 0xb3c5fbef
0,       1431,       1431,        1,    38016, 0x2222f726
0,       1432,       1432,        1,    38016, 0x66f7f42f
0,       1433,       1433,        1,    38016, 0xef8af722
0,       1434,       1434,        1,    38016, 0x4ac0f8d7
0,       1435,       1435,        1,    38016, 0x5bfe5c81
0,       1436,       1436,        1,    38016, 0x4afb6df9
0,       1437,       1437,        1,    38016, 0xa8128a37
0,       1438,       1438,        1,    38016, 0x1fc79ed0
0,       1439,       1439,        1,    38016, 0x9967a997
0,       1440,       1440,        1,    38016, 0x7bb5f6e1
0,       1441,       1441,        1,    38016, 0xdda90122
0,       1442,       1442,        1,    38016, 0x81700c1a
0,       1443,       1443,        1,    38016, 0x9e121e77
0,       1444,       1444,        1,    38016, 0xf58926a3
0,       1445,       1445,        1,    38016, 0x4d1431a4
0,       1446,       1446,        1,    38016, 0x0de6e741
0,       1447,       1447,        1,    38016, 0x3ae9f601
0,       1448,       1448,        1,    38016, 0xbed2e950
0,       1449,       1449,        1,    38016, 0x619f100d
0,       1450,       1450,        1,    38016, 0x6fa4a4e2
0,       1451,       1451,        1,    38016, 0x316cddcd
0,       1452,       1452,        1,    38016, 0x03132791
0,       1453,       1453,        1,    38016, 0x10122784
0,       1454,       1454,        1,    38016, 0x0e732980
0,       1455,       1455,        1,    38016, 0x382d26f9
0,       1456,       1456,        1,    38016, 0x651028fd
0,       1457,       1457,        1,    38016, 0x61732850
0,       1458,       1458,        1,    38016, 0x47912dde
0,       1459,       1459,        1,    38016, 0xe3a12fdc
0,       1460,       1460,        1,    38016, 0x8bc332ff
0,       1461,       1461,        1,    38016, 0xcc3a3cdc
0,       1462,       1462,        1,    38016, 0x190e2fec
0,       1463,       1463,        1,    38016, 0x236c3291
0,       1464,       1464,        1,    38016, 0xc0e55dd3
0,       1465,       1465,        1,    38016, 0x06c85411
0,       1466,       1466,        1,    38016, 0x0c0b3091
0,       1467,       1467,        1,    38016, 0x8c1333cd
0,       1468,       1468,        1,    38016, 0x51b339a5
0,       1469,       1469,        1,    38016, 0x2d5b33ef
0,       1470,       1470,        1,    38016, 0x73f0395b
0,       1471,       1471,        1,    38016, 0x505b42d3
0,       1472,       1472,        1,    38016, 0x56e44c7f
0,       1473,       1473,        1,    38016, 0x26465781
0,       1474,       1474,        1,    38016, 0x1d14800d
0,       1475,       1475,        1,    38016, 0x752cb297
0,       1476,       1476,        1,    38016, 0x0c3ab720
0,       1477,       1477,        1,    38016, 0x21c2f136
0,       1478,       1478,        1,    38016, 0xbae8b293
0,       1479,       1479,        1,    38016, 0xe4b2fe9b
0,       1480,       1480,        1,    38016, 0xfaaf0394
0,       1481,       1481,        1,    38016, 0xa6f61d4b
0,       1482,       1482,        1,    38016, 0x0e205192
0,       1483,       1483,        1,    38016, 0x9b3c5c1f
0,       1484,       1484,        1,    38016, 0x3b93552f
0,       1485,       1485,        1,    38016, 0xe56e5b54
0,       1486,       1486,        1,    38016, 0xa1c26095
0,       1487,       1487,        1,    38016, 0x1eb66e41
0,       1488,       1488,        1,    38016, 0x83eb6e83
0,       1489,       1489,        1,    38016, 0xc8a979d3
0,       1490,       1490,        1,    38016, 0x81fb7b32
0,       1491,       1491,        1,    38016, 0xe07928b7
0,       1492,       1492,        1,    38016, 0x38591267
0,       1493,       1493,        1,    38016, 0xce563165
0,       1494,       1494,        1,    38016, 0x5fec3563
0,       1495,       1495,        1,    38016, 0xd7402c7c
0,       1496,       1496,        1,    38016, 0xf2a93af4
0,       1497,       1497,        1,    38016, 0x78f22fe7
0,       1498,       1498,        1,    38016, 0x25554875
0,       1499,       1499,        1,    38016, 0x79546ca2
0,       1500,       1500,        1,    38016, 0xdae2814a
0,       1501,       1501,        1,    38016, 0xf1ef9a9e
0,       1502,       1502,        1,    38016, 0xb76d8b83
0,       1503,       1503,        1,    38016, 0x1abf8fa8
0,       1504,       1504,        1,    38016, 0x8f098fa4
0,       1505,       1505,        1,    38016, 0xb098843c
0,       1506,       1506,        1,    38016, 0x1d5186d3
0,       1507,       1507,        1,    38016, 0x93f4923c
0,       1508,       1508,        1,    38016, 0x496094e2
0,       1509,       1509,        1,    38016, 0x7aea93f1
0,       1510,       1510,        1,    38016, 0x556c6675
0,       1511,       1511,        1,    38016, 0x90566aca
0,       1512,       1512,        1,    38016, 0x14899a93
0,       1513,       1513,        1,    38016, 0xd269e0e7
0,       1514,       1514,        1,    38016, 0x1261d2cc
0,       1515,       1515,        1,    38016, 0x299c9301
0,       1516,       1516,        1,    38016, 0xee9c9ba5
0,       1517,       1517,        1,    38016, 0xb48ab676
0,       1518,       1518,        1,    38016, 0x4ef9b1c5
0,       1519,       1519,        1,    38016, 0x8aae9912
0,       1520,       1520,        1,    38016, 0x1bc09f53
0,       1521,       1521,        1,    38016, 0x2e089c6b
0,       1522,       1522,        1,    38016, 0x67598f8d
0,       1523,       1523,        1,    38016, 0xacd394e1
0,       1524,       1524,        1,    38016, 0xe2979b75
0,       1525,       1525,        1,    38016, 0xb9749ff9
0,       1526,       1526,        1,    38016, 0x02bda2f0
0,       1527,       1527,        1,    38016, 0xe6caa499
0,       1528,       1528,        1,    38016, 0xc6d9a547
0,       1529,       1529,        1,    38016, 0x1c89aa34
0,       1530,       1530,        1,    38016, 0x61feb4fc
0,       1531,       1531,        1,    38016, 0x2a40b1f4
0,       1532,       1532,        1,    38016, 0x4ad3ac08
0,       1533,       1533,        1,    38016, 0xf5e8b06d
0,       1534,       1534,        1,    38016, 0xb0eea800
0,       1535,       1535,        1,    38016, 0x430cc535
0,       1536,       1536,        1,    38016, 0x8e66b9cf
0,       1537,       1537,        1,    38016, 0x5c68b4c4
0,       1538,       1538,        1,    38016, 0x9381c64b
0,       1539,       1539,        1,    38016, 0x4234bed7
0,       1540,       1540,        1,    38016, 0xce72bf02
0,       1541,       1541,        1,    38016, 0xb8cfbcd7
0,       1542,       1542,        1,    38016, 0x75a5b1bd
0,       1543,       1543,        1,    38016, 0xc27fb9eb
0,       1544,       1544,        1,    38016, 0xa1b1bc62
0,       1545,       1545,        1,    38016, 0x1cdeb0a3
0,       1546,       1546,        1,    38016, 0xaea6a799
0,       1547,       1547,        1,    38016, 0x8152ac4f
0,       1548,       1548,        1,    38016, 0x59c1a66d
0,       1549,       1549,        1,    38016, 0x6bd99f24
0,       1550,       1550,        1,    38016, 0x96a73236
0,       1551,       1551,        1,    38016, 0xb27e4856
0,       1552,       1552,        1,    38016, 0x8b57447a
0,       1553,       1553,        1,    38016, 0xcef84a21
0,       1554,       1554,        1,    38016, 0x5babc7cc
0,       1555,       1555,        1,    38016, 0x6ed2cec3
0,       1556,       1556,        1,    38016, 0xa2efdc17
0,       1557,       1557,        1,    38016, 0x47bad971
0,       1558,       1558,        1,    38016, 0x150dffd4
0,       1559,       1559,        1,    38016, 0x3ecef2ad
0,       1560,       1560,        1,    38016, 0x355cdade
0,       1561,       1561,        1,    38016, 0x3b15e809
0,       1562,       1562,        1,    38016, 0x37fcf890
0,       1563,       1563,        1,    38016, 0x8ca606d1
0,       1564,       1564,        1,    38016, 0x51cafefe
0,       1565,       1565,        1,    38016, 0x736be64a
0,       1566,       1566,        1,    38016, 0x4f2052c1
0,       1567,       1567,        1,    38016, 0xc6715e93
0,       1568,       1568,        1,    38016, 0x765c5a58
0,       1569,       1569,        1,    38016, 0x5abe5617
0,       1570,       1570,        1,    38016, 0xb1ac540a
0,       1571,       1571,        1,    38016, 0xd9f75c21
0,       1572,       1572,        1,    38016, 0x0c1946c0
0,       1573,       1573,        1,    38016, 0x93363a34
0,       1574,       1574,        1,    38016, 0x2c9f2fe4
0,       1575,       1575,        1,    38016, 0x023c321a
0,       1576,       1576,        1,    38016, 0x1931314b
0,       1577,       1577,        1,    38016, 0x16782d59
0,       1578,       1578,        1,    38016, 0x29aa289f
0,       1579,       1579,        1,    38016, 0xea0ddb85
0,       1580,       1580,        1,    38016, 0xe09ae656
0,       1581,       1581,        1,    38016, 0x682ff29f
0,       1582,       1582,        1,    38016, 0xf3ac29ca
0,       1583,       1583,        1,    38016, 0x95160cad
0,       1584,       1584,        1,    38016, 0x9afa093c
0,       1585,       1585,        1,    38016, 0x2ad30958
0,       1586,       1586,        1,    38016, 0x4b600e3a
0,       1587,       1587,        1,    38016, 0x5b0e099b
0,       1588,       1588,        1,    38016, 0x2d2aff9b
0,       1589,       1589,        1,    38016, 0x8bb10aa6
0,       1590,       1590,        1,    38016, 0xfebe1f1d
0,       1591,       1591,        1,    38016, 0xa4431abd
0,       1592,       1592,        1,    38016, 0xef7729a6
0,       1593,       1593,        1,    38016, 0x7b5b1f78
0,       1594,       1594,        1,    38016, 0x903b203e
0,       1595,       1595,        1,    38016, 0xbcc716a2
0,       1596,       1596,        1,    38016, 0xee6c1f4c
0,       1597,       1597,        1,    38016, 0xc78c2ab8
0,       1598,       1598,        1,    38016, 0xa77a255a
0,       1599,       1599,        1,    38016, 0x9d5815fc
0,       1600,       1600,        1,    38016, 0x7d5e7d79
0,       1601,       1601,        1,    38016, 0xf7989072
0,       1602,       1602,        1,    38016, 0x45499feb
0,       1603,       1603,        1,    38016, 0xc58aae7b
0,       1604,       1604,        1,    38016, 0x882aa1cb
0,       1605,       1605,        1,    38016, 0x56cd97bf
0,       1606,       1606,        1,    38016, 0x2d6af920
0,       1607,       1607,        1,    38016, 0x43c312eb
0,       1608,       1608,        1,    38016, 0x12872b9f
0,       1609,       1609,        1,    38016, 0x3c623ffe
0,       1610,       1610,        1,    38016, 0x120e302d
0,       1611,       1611,        1,    38016, 0x9cb43964
0,       1612,       1612,        1,    38016, 0xb371311c
0,       1613,       1613,        1,    38016, 0x28b523d4
0,       1614,       1614,        1,    38016, 0x58031bff
0,       1615,       1615,        1,    38016, 0xe6691818
0,       1616,       1616,        1,    38016, 0x6a9b29c3
0,       1617,       1617,        1,    38016, 0x794b25ce
0,       1618,       1618,        1,    38016, 0xfc273119
0,       1619,       1619,        1,    38016, 0x82ad2a3a
0,       1620,       1620,        1,    38016, 0x9d2da281
0,       1621,       1621,        1,    38016, 0x11271ba1
0,       1622,       1622,        1,    38016, 0x1558b618
0,       1623,       1623,        1,    38016, 0xf5d8c22f
0,       1624,       1624,        1,    38016, 0xf20214f9
0,       1625,       1625,        1,    38016, 0x15b01f3a
0,       1626,       1626,        1,    38016, 0x68f2b533
0,       1627,       1627,        1,    38016, 0x9686a827
0,       1628,       1628,        1,    38016, 0xf214a2dc
0,       1629,       1629,        1,    38016, 0x3d421eb0
0,       1630,       1630,        1,    38016, 0x78251e60
0,       1631,       1631,        1,    38016, 0xab092856
0,       1632,       1632,        1,    38016, 0x5eaba7bc
0,       1633,       1633,        1,    38016, 0x612fb699
0,       1634,       1634,        1,    38016, 0x8a83a3fd
0,       1635,       1635,        1,    38016, 0xbcd9919b
0,       1636,       1636,        1,    38016, 0xb9063049
0,       1637,       1637,        1,    38016, 0x5cb22fde
0,       1638,       1638,        1,    38016, 0x7db92390
0,       1639,       1639,        1,    38016, 0x801b241b
0,       1640,       1640,        1,    38016, 0x6eeb8e1b
0,       1641,       1641,        1,    38016, 0x660b9568
0,       1642,       1642,        1,    38016, 0x2a5b8b3d
0,       1643,       1643,        1,    38016, 0x15098b9a
0,       1644,       1644,        1,    38016, 0xd29284f5
0,       1645,       1645,        1,    38016, 0x839323c6
0,       1646,       1646,        1,    38016, 0xd6a4212c
0,       1647,       1647,        1,    38016, 0x1c1c2259
0,       1648,       1648,        1,    38016, 0x0b1d2ef2
0,       1649,       1649,        1,    38016, 0xecd52cfc
0,       1650,       1650,        1,    38016, 0x419326cb
0,       1651,       1651,        1,    38016, 0xea813e68
0,       1652,       1652,        1,    38016, 0xba9a33ba
0,       1653,       1653,        1,    38016, 0x703b3b25
0,       1654,       1654,        1,    38016, 0x391c3cce
0,       1655,       1655,        1,    38016, 0xd1533fe3
0,       1656,       1656,        1,    38016, 0xb9361f10
0,       1657,       1657,        1,    38016, 0x8d652ea6
0,       1658,       1658,        1,    38016, 0x22dc15ae
0,       1659,       1659,        1,    38016, 0x2e5e0ee7
0,       1660,       1660,        1,    38016, 0xd6bd15cf
0,       1661,       1661,        1,    38016, 0xb16f198a
0,       1662,       1662,        1,    38016, 0xd9653e95
0,       1663,       1663,        1,    38016, 0x39da2e3a
0,       1664,       1664,        1,    38016, 0x01b12526
0,       1665,       1665,        1,    38016, 0x94a52dde
0,       1666,       1666,        1,    38016, 0xda0c32d8
0,       1667,       1667,        1,    38016, 0x89af2566
0,       1668,       1668,        1,    38016, 0x71961a43
0,       1669,       1669,        1,    38016, 0x5fb91337
0,       1670,       1670,        1,    38016, 0x6e430a84
0,       1671,       1671,        1,    38016, 0x1defffb2
0,       1672,       1672,        1,    38016, 0xcc93023f
0,       1673,       1673,        1,    38016, 0xfcd60168
0,       1674,       1674,        1,    38016, 0x8a3201d4
0,       1675,       1675,        1,    38016, 0x5235fef3
0,       1676,       1676,        1,    38016, 0x989121b9
0,       1677,       1677,        1,    38016, 0x067a1d36
0,       1678,       1678,        1,    38016, 0xa168242b
0,       1679,       1679,        1,    38016, 0x425f2475
0,       1680,       1680,        1,    38016, 0x298f14d9
0,       1681,       1681,        1,    38016, 0x3a7c1838
0,       1682,       1682,        1,    38016, 0xd173155a
0,       1683,       1683,        1,    38016, 0x210113ec
0,       1684,       1684,        1,    38016, 0xa0c2f88f
0,       1685,       1685,        1,    38016, 0x4fa1f4e2
0,       1686,       1686,        1,    38016, 0x812df750
0,       1687,       1687,        1,    38016, 0xfd5cea45
0,       1688,       1688,        1,    38016, 0xb823ee4a
0,       1689,       1689,        1,    38016, 0x3555d6bf
0,       1690,       1690,        1,    38016, 0x6dabf021
0,       1691,       1691,        1,    38016, 0x7ae0f191
0,       1692,       1692,        1,    38016, 0xabdc1546
0,       1693,       1693,        1,    38016, 0x36dd0dbb
0,       1694,       1694,        1,    38016, 0x008ffe5f
0,       1695,       1695,        1,    38016, 0xe956f9c0
0,       1696,       1696,        1,    38016, 0x9823ee03
0,       1697,       1697,        1,    38016, 0xf63fedde
0,       1698,       1698,        1,    38016, 0x67530afb
0,       1699,       1699,        1,    38016, 0x2da5e470
